<?xml version="1.0" encoding="utf-8"?>
<!-- Generator: Adobe Illustrator 27.2.0, SVG Export Plug-In . SVG Version: 6.00 Build 0)  -->
<svg version="1.1" id="Layer_1" xmlns="http://www.w3.org/2000/svg" xmlns:xlink="http://www.w3.org/1999/xlink" x="0px" y="0px"
	 viewBox="0 0 792 149.5" style="enable-background:new 0 0 792 149.5;" xml:space="preserve">
<style type="text/css">
	.st0{fill:none;}
	.st1{fill:#2979A3;}
	.st2{fill:#DB9A44;}
	.st3{fill-rule:evenodd;clip-rule:evenodd;fill:#2979A3;}
	.st4{fill:#AD5248;}
	.st5{fill:#7EBA0D;}
</style>
<g>
	<path class="st1" d="M119.4,78.5h9.5v23.9h0.2c0.9-2.1,1.9-4,2.9-5.9l9.6-18h11.8l-14,23l14.8,31H143l-10.4-23.3l-3.6,5.7v17.6
		h-9.5L119.4,78.5L119.4,78.5z"/>
	<path class="st1" d="M156.5,132.5v-54h11.2l8.8,19.8c2.5,5.7,5,12.4,6.9,18.5h0.2c-0.6-7.1-0.8-14.4-0.8-22.5V78.5h8.8v54h-10.1
		l-9.1-20.8c-2.5-5.8-5.3-12.7-7.4-19.1l-0.2,0.1c0.2,7.1,0.4,14.8,0.4,23.6v16.3L156.5,132.5L156.5,132.5z"/>
	<path class="st1" d="M248.3,132.5l-10.1-54h10.2l3.2,22.3c0.9,6.4,1.8,13.4,2.5,18.8h0.1c0.7-5.9,1.7-12.3,2.8-19l3.6-22.1h10.2
		l3.4,22.8c0.9,6.3,1.6,12.1,2.3,18.1h0.1c0.6-6,1.6-12.3,2.5-18.8l3.5-22.1h9.8l-11,54H271l-3.6-23.2c-0.8-5.5-1.5-10.5-2-16.7
		h-0.1c-0.8,6.1-1.5,11.2-2.5,16.7l-4,23.2L248.3,132.5L248.3,132.5z"/>
	<path class="st1" d="M314.2,132.5v-22.1l-13.4-31.9h11l4.3,13c1.3,3.9,2.2,6.8,3.3,10.3h0.1c0.9-3.4,2-6.5,3.2-10.3l4.3-13h10.8
		l-14,31.5v22.5H314.2z"/>
	<path class="st1" d="M390.9,78.5v31.1c0,9.3,2.8,14,7.7,14c5,0,7.8-4.5,7.8-14V78.5h9.6v30.3c0,16.7-6.6,24.6-17.7,24.6
		c-10.7,0-17-7.5-17-24.8V78.5H390.9z"/>
	<path class="st1" d="M422.6,79.2c3.1-0.6,7.7-1.1,12.8-1.1c6.3,0,10.7,1.2,13.7,4.2c2.5,2.6,3.9,6.3,3.9,11.3
		c0,6.9-3.8,11.6-7.5,13.3v0.2c3,1.5,4.6,5.1,5.7,10.1c1.3,6.1,2.6,13.1,3.5,15.2h-9.8c-0.7-1.5-1.7-5.9-3-12.6
		c-1.1-6.7-3-8.6-6.9-8.7h-2.9v21.2h-9.5L422.6,79.2L422.6,79.2z M432.1,102.5h3.8c4.8,0,7.6-3,7.6-7.8c0-5-2.6-7.5-7-7.5
		c-2.3,0-3.6,0.2-4.3,0.4L432.1,102.5L432.1,102.5z"/>
</g>
<path class="st2" d="M484.7,120.6h-0.2c-0.8-4.9-1.7-11.1-2.6-16.7c-4.5,0.7-8.9,1.5-13.4,2.5l7,28.2h16l4.1-19.6
	c0.9-4,1.5-8.1,2.3-13.2c-3.4,0.4-6.8,0.8-10.1,1.3C486.6,109,485.5,115,484.7,120.6z"/>
<path class="st1" d="M481.7,99.7l-3.1-18.6h-15.5l5.4,22.1c4.5-0.9,8.9-1.8,13.4-2.5C481.8,100.4,481.8,100,481.7,99.7z"/>
<path class="st2" d="M515.3,102.8c-1,5.9-1.9,11.9-2.7,17.5h-0.2c-0.7-5.7-1.4-10.8-2.4-16.6l-0.5-3.2c-3.1,0.3-6.3,0.6-9.5,1
	c-0.5,0-1,0.1-1.5,0.2c0.6,5.1,1.3,9.3,2,13.2l3.6,19.7h15.8l9.3-35.4c-4.5,0.2-8.9,0.5-13.4,0.8L515.3,102.8z"/>
<path class="st1" d="M509.5,97.3l-2.8-16.2h-15.4l-3.4,18.5c0,0.1,0,0.1,0,0.2c3.3-0.5,6.7-0.9,10.1-1.3c0.1-0.6,0.2-1.3,0.3-1.9
	h0.2c0.1,0.6,0.1,1.2,0.2,1.9c0.5,0,1-0.1,1.5-0.2C503.2,97.9,506.3,97.6,509.5,97.3z"/>
<path class="st1" d="M518.5,81.1l-2.7,15.7c4.5-0.4,9-0.6,13.4-0.8l3.9-14.9L518.5,81.1L518.5,81.1z"/>
<path class="st2" d="M535.5,98.9v35.7h36.2v-11H550v-9.2h19.4v-10.9H550v-4.3C545.1,98.9,540.3,98.8,535.5,98.9z"/>
<path class="st1" d="M570.5,92v-11h-35v14.6c4.8,0,9.6,0,14.5,0.2V92L570.5,92L570.5,92z"/>
<path class="st1" d="M591.7,105.9V81.1h-14.5v20.1c2.7,1.2,5.3,2.4,8.2,3.2C587.6,104.9,589.6,105.5,591.7,105.9z"/>
<path class="st2" d="M585.5,107.6c-2.9-0.8-5.6-2-8.2-3.2v30.2h35.2v-11.3h-20.7v-14.1C589.6,108.7,587.6,108.1,585.5,107.6z"/>
<path class="st3" d="M364.6,85.6c-5.1-6.2-9.8-10-9.8-10c-1.7,1.9-3.4,3.8-4.8,5.6l0,0h0c-0.8,1-1.6,2-2.4,3c-0.5,0.6-1,1.3-1.4,1.9
	c-2.4,3.2-4.3,6.3-5.9,9.2c-6.4,11.8-7,21-4.4,27.6c1.2,3.1,3.1,5.6,5.5,7.5c2,1.6,4.3,2.9,6.8,3.7c0.6,0.2,1.1,0.3,1.7,0.5
	c3.1,0.8,6.5,0.9,9.6,0.4c0,0,0.1,0,0.1,0c0,0,0,0,0,0c0.4-0.1,0.7-0.1,1.1-0.2c0,0,0.1,0,0.1,0l0.1,0c0.4-0.1,0.8-0.2,1.2-0.3l0,0
	c0.4-0.1,0.8-0.2,1.2-0.4l0,0c0.4-0.1,0.8-0.3,1.2-0.5h0c0.4-0.2,0.8-0.4,1.2-0.5l0,0c0.4-0.2,0.8-0.4,1.1-0.6l0,0
	c0.4-0.2,0.7-0.4,1.1-0.7l0,0c0.4-0.2,0.7-0.5,1-0.8l0,0c0.3-0.3,0.7-0.5,1-0.8l0,0c0.1-0.1,0.2-0.1,0.2-0.2
	c0.2-0.2,0.5-0.5,0.7-0.7l0,0c0.3-0.3,0.6-0.6,0.9-1l0,0c0.3-0.3,0.5-0.7,0.8-1l0,0c0.3-0.4,0.5-0.7,0.7-1.1l0,0
	c0.2-0.4,0.5-0.8,0.7-1.2l0,0c0.2-0.4,0.4-0.9,0.6-1.3l0,0c0.2-0.4,0.4-0.9,0.5-1.4l0,0c0.1-0.3,0.2-0.5,0.3-0.8
	c0.1-0.2,0.1-0.4,0.2-0.6l0-0.1c0.1-0.5,0.2-1,0.3-1.5l0-0.1c0.1-0.5,0.2-1,0.2-1.5l0,0c0.1-0.5,0.1-1.1,0.1-1.7
	C377.4,103.9,370.8,93,364.6,85.6z M366.5,121.3c-1.5,2.3-4.5,2.8-6.5,1.3c-0.4-0.3-0.5-0.8-0.4-1.3c0.4-1.8,2.1-2.9,3.6-3.8
	c1.6-1.1,3.3-3.4,2.4-5.4l0.4,0.3C367.9,114.5,368.2,118.8,366.5,121.3z"/>
<path class="st1" d="M238.2,104.9c0,17.7-8.8,28.5-21.8,28.5c-13.1,0-20.8-12.1-20.8-27.5c0-16.2,8.5-28.3,21.6-28.3
	C230.8,77.6,238.2,90,238.2,104.9z M206.2,105.7c0,10.6,4.1,18,10.8,18c6.8,0,10.6-7.9,10.6-18.4c0-9.7-3.8-18-10.7-18
	C210.2,87.3,206.2,95.2,206.2,105.7z"/>
<g>
	<path class="st2" d="M142.1,67.9c0-0.8-0.5-1.6-1.6-1.8c-1.1-0.2-1.1-0.8-1.2-1.4c-0.2-2-0.2-4-0.7-6c-0.4-1.8-1.4-3.5-3-4.9
		c-0.9-0.8-1.8-0.8-2.6,0.1c-0.4,0.4-0.5,0.8-0.9,1.2c-0.2,0.2-0.7,0.4-0.9,0.3c-4.9-1.5-10-1.8-15.2-1.8c-2.1,0-4.1,0-6.1,0
		c-1.8,0-2.8-0.8-3-2.2c-0.3-2.5-0.6-5.1-0.9-7.6c-0.9-7.8-1.9-15.5-2.8-23.3c-0.2-1.8-0.5-3.5-1-5.2c-0.4-1.4-1-1.8-2.9-1.8
		c-8.6-0.1-17.2-0.2-25.9-0.3c-2.1,0-3,0.8-3,2.4c0,1.4,0,2.9,0,4.3c0,0.8-0.4,1.5-1.3,2c-2.8,1.6-5.7,1.3-7.6-0.9
		c-1.1-1.2-1.9-2.7-2.8-4c-1.4-2.1-3.1-4-5.8-5.1c-5.7-2.4-12.7,0.3-15.2,4.4c-1,1.7-1.5,3.6-2,5.4C35,24.3,34.5,27.2,34,30
		c-1.6,8.2-3.3,16.5-4.8,24.7c-0.4,2.1,0.3,4.2,1.9,5.9c2.6,2.9,6.4,3.2,10.4,2.7c1.6-0.2,2.9-0.2,4.4,0.4c2,0.8,4.2,0.9,6-0.4
		c2.3-1.7,3.3-3.9,2.8-6.4c-0.2-0.9-1-1.5-2-2c-3.4-1.3-7.1-0.2-8.5,2.5c-0.1,0.2-0.4,0.6-0.7,0.6c-3.5,0.7-6.7-1.3-6.4-4
		c0.2-2.5,0.5-5,1-7.5c1.8-8.7,3.7-17.4,5.5-26c0.4-1.8,1.9-2.9,3.9-3.4c0.8-0.2,2-0.2,2.6,0.2c1.2,0.7,2.1,1.6,3,2.6
		c1.5,1.6,2.6,3.3,4.2,4.8c2.8,2.7,8.1,4.6,12.8,2.6c0.2-0.1,0.9,0.1,0.9,0.2c0.1,0.6,0.7,0.7,1.2,0.6c1.2-0.1,1.4,0.3,1.4,1.1
		c0,2.6,0,5.3-0.1,7.9c0,0.8,0.3,1.3,1,1.8c0.8,0.5,1.7,1,2.5,1.6c0.3,0.2,0.4,0.5,0.5,0.8c0,0.1-0.3,0.4-0.5,0.4
		c-1.1,0.4-1.4,1.1-0.6,1.9c0.2,0.1,0.3,0.4,0.2,0.5c-0.1,0.1-0.4,0.2-0.7,0.2c-1.4,0-2.7,0-4.1,0c-2.1,0-3.1,0.8-3.1,2.4
		c0,2.5,0,4.9-0.1,7.4c0,0.5-0.2,1-0.5,1.5c-0.4,0.8-0.9,1.6-1.4,2.4c-0.1,0.2-0.4,0.4-0.6,0.5c-3.8,1.6-4.9,5.3-2.2,8.1
		c1.3,1.3,1.4,2.7,1.6,4.1c0.1,0.5,0.1,1.1,0.1,1.6c0.2,1.2,1.1,1.9,2.7,2c0.4,0,0.9,0,1.3,0c2.7,0,2.4-0.3,2.4,1.9
		c0,18.7-0.1,37.5-0.1,56.2c0.2,0,0.4,0,0.7,0c0-18.7,0-37.5,0-56.2c0-2.1-0.3-1.8,2.4-1.8c3.4,0,6.8,0,10.2,0c1,0,1.3,0.2,1.3,1
		c0,19,0,38,0,57c0.2,0,0.4,0,0.6,0c0-17.8,0-35.6,0-53.4c0-1.2,0-2.5,0-3.7c0-0.6,0.2-0.9,1.1-1c1.7-0.1,2.4-0.9,2.5-2.2
		c0-1-0.1-1.9,0.1-2.9c0.1-0.5,0.5-1.1,0.8-1.6c0.7-1.1,1.6-2.1,2.2-3.3c0.5-1.1,0.9-1.5,2.5-1.5c2.9,0.1,5.8,0.3,8.7,0.4
		c6.4,0.3,12.8,0.6,19.2,1c1.4,0.1,2.7,0.3,3.3,1.4c0.5,1-0.2,1.7-1.1,2.4c-0.9,0.7-1.1,1.6-0.7,2.6c0.4,0.9,1.3,1.1,2.4,1.1
		c2,0,3.9,0.2,5.9,0.1c2.6-0.2,5.2-0.5,7.4-1.8C142.3,69.7,142.1,68.8,142.1,67.9z M77.4,20c-1.4,0-2.6-1-2.6-2.3c0-0.7,1.4-2,2.3-2
		c1.4-0.1,2.7,1.1,2.7,2.4C79.8,18.8,78.3,19.9,77.4,20z M81.2,29.7c-0.4,0-0.9,0-1.3,0c0,0,0,0,0,0c-0.4,0-0.8,0-1.2,0
		c-0.8,0-0.9-0.3-0.9-0.8c0-0.5,0.2-0.8,0.9-0.7c0.8,0,1.7,0,2.5,0c0.8,0,0.9,0.3,1,0.8C82.2,29.5,81.9,29.7,81.2,29.7z M87.9,42.4
		c-0.1,1.4-1.5,2.3-3.3,2.1c-0.9-0.1-0.9-0.4-0.5-0.9c0.8-0.9,0.6-1.5-0.7-1.9c-0.6-0.2-0.5-0.7,0.1-1.1c0.9-0.5,1.9-1,2.6-1.7
		c0.5-0.5,0.9-1.2,0.9-1.8c0.1-2.6,0-5.1,0-7.7c0-0.2,0.1-0.4,0.1-0.5c0.2,0,0.3-0.1,0.5-0.1c0.2,0.6,0.6,1.1,0.6,1.7
		C88.1,34.5,88,38.4,87.9,42.4z"/>
	<path class="st2" d="M86.5,75.5c0-0.8-0.3-1-1.3-1c-3.4,0-6.8,0-10.2,0c-2.7,0-2.4-0.2-2.4,1.8c0,18.7,0,37.5,0,56.2
		c4.7,0,9.3,0,13.9,0C86.5,113.5,86.5,94.5,86.5,75.5z"/>
	<path class="st2" d="M87.6,28.8c0.2,0.6,0.6,1.1,0.6,1.7c-0.1,4-0.2,7.9-0.3,11.9c-0.1,1.4-1.5,2.3-3.3,2.1
		c-0.9-0.1-0.9-0.4-0.5-0.9c0.8-0.9,0.6-1.5-0.7-1.9c-0.6-0.2-0.5-0.7,0.1-1.1c0.9-0.5,1.9-1,2.6-1.7c0.5-0.5,0.9-1.2,0.9-1.8
		c0.1-2.6,0-5.1,0-7.7c0-0.2,0.1-0.4,0.1-0.5C87.3,28.9,87.4,28.9,87.6,28.8z"/>
	<path class="st2" d="M74.8,17.7c0-0.7,1.4-2,2.3-2c1.4-0.1,2.7,1.1,2.7,2.4c0,0.7-1.5,1.9-2.4,1.9C76,20,74.8,18.9,74.8,17.7z"/>
	<path class="st2" d="M79.9,29.7c-0.4,0-0.8,0-1.2,0c-0.8,0-0.9-0.3-0.9-0.8c0-0.5,0.2-0.8,0.9-0.7c0.8,0,1.7,0,2.5,0
		c0.8,0,0.9,0.3,1,0.8s-0.3,0.7-0.9,0.7C80.8,29.7,80.4,29.7,79.9,29.7C79.9,29.7,79.9,29.7,79.9,29.7z"/>
</g>
<path class="st1" d="M630.8,81.1h-14.5v29.5c4.8,0.5,9.7,0.7,14.5,0.8V81.1z"/>
<path class="st2" d="M630.8,114.6c-4.8-0.1-9.7-0.4-14.5-0.8v20.8h35.2v-11.3h-20.7L630.8,114.6L630.8,114.6z"/>
<path class="st4" d="M707.6,68.8l-12.5,16l5.5,7c2.5-0.9,4.8-1.6,7-2.3V68.8z"/>
<path class="st4" d="M692.3,88.3l-7.9,10.1c4.1-1.9,8.1-3.6,11.9-5.1L692.3,88.3z"/>
<path class="st4" d="M689.4,31.6l-24.1,15.8l-7.1,13.4v53.4c4.7-3.7,9.6-6.9,14.5-9.7v-42c0,0,0-0.1,0-0.1c0-0.1,0-0.2,0-0.2
	c0-0.1,0-0.1,0-0.2c0-0.1,0-0.1,0.1-0.2s0-0.1,0.1-0.2c0-0.1,0.1-0.1,0.1-0.2c0-0.1,0.1-0.1,0.1-0.2s0.1-0.1,0.1-0.2
	c0-0.1,0.1-0.1,0.2-0.2c0,0,0,0,0.1-0.1c0,0,0.1,0,0.1-0.1c0.1,0,0.1-0.1,0.2-0.1c0.1,0,0.1-0.1,0.2-0.1s0.1-0.1,0.2-0.1
	c0.1,0,0.1,0,0.2-0.1c0.1,0,0.1,0,0.2,0c0.1,0,0.2,0,0.2,0c0,0,0.1,0,0.1,0h34.8c0,0,0.1,0,0.1,0c0.1,0,0.2,0,0.2,0
	c0.1,0,0.1,0,0.2,0c0.1,0,0.1,0,0.2,0.1s0.1,0,0.2,0.1c0.1,0,0.1,0.1,0.2,0.1c0.1,0,0.1,0.1,0.2,0.1c0,0,0.1,0,0.1,0.1
	c0,0,0,0,0.1,0.1c0,0,0.1,0.1,0.2,0.2c0,0,0.1,0.1,0.1,0.2c0,0.1,0.1,0.1,0.1,0.2c0,0.1,0.1,0.1,0.1,0.2c0,0.1,0,0.1,0.1,0.2
	s0,0.1,0.1,0.2c0,0.1,0,0.1,0,0.2c0,0.1,0,0.2,0,0.2c0,0,0,0.1,0,0.1v25.7c8.8-2.5,14.5-3.3,14.5-3.3l-1-25.9l-10.5-13.4L689.4,31.6
	"/>
<polygon class="st4" points="705.1,64.8 679.5,64.8 692.3,81.2 "/>
<polygon class="st4" points="677,100.7 689.5,84.8 677,68.8 "/>
<polyline class="st4" points="701.7,30.8 725.8,44.6 732.2,55.2 768.4,60.5 757.2,49.7 731.9,37.8 701.7,30.8 "/>
<path class="st5" d="M704,103.3c-1.1,0.5-2.3,0.9-3.4,1.4c-3.4,1.4-6.7,2.9-10.1,4.6c-8.8,4.4-17.3,9.6-25.1,16
	c-2.4,2-1.1,6.1,1.9,6.1h15.1c7.1,0,14-2.8,19.3-7.9c10.2-9.6,32-25.6,70.1-33.5c0.3-0.1,0.6-0.4,0.6-0.7c0-0.4-0.3-0.8-0.7-0.8
	c-12.4,0.8-35.6,3.6-59.8,11.9C709.2,101.3,706.7,102.3,704,103.3z"/>
<path class="st5" d="M769.9,95.4c-16.6,5.1-36.8,14-55.4,29.2c-2.7,2.2-1.2,6.8,2.1,6.8h9c12.9,0,25.3-5.3,34.6-15
	c5-5.3,12.1-12.8,12.1-16v-3C772.3,96,771.1,95,769.9,95.4z"/>
<path class="st4" d="M731.9,83.9c3.9-0.5,12-1.6,17.3-1.9c11.7-0.6,16.2-0.8,16.2-0.8l0-14.7l-33.5-4L731.9,83.9L731.9,83.9z"/>
</svg>
