<svg version="1.1" id="Layer_1" xmlns="http://www.w3.org/2000/svg" xmlns:xlink="http://www.w3.org/1999/xlink" x="0px" y="0px"
	 width="100%" viewBox="0 0 2500 2500" enable-background="new 0 0 2500 2500" xml:space="preserve">
<path fill="#FFFFFF" opacity="1.000000" stroke="none" 
	d="
M1382.000000,2502.000000 
	C921.333313,2502.000000 461.666656,2502.000000 2.000000,2502.000000 
	C2.000000,1668.666626 2.000000,835.333313 2.000000,2.000000 
	C835.333313,2.000000 1668.666626,2.000000 2502.000000,2.000000 
	C2502.000000,835.333313 2502.000000,1668.666626 2502.000000,2502.000000 
	C2129.000000,2502.000000 1756.000000,2502.000000 1382.000000,2502.000000 
M1033.160400,1393.710693 
	C1053.700195,1393.710693 1074.239868,1393.710693 1095.117188,1393.710693 
	C1117.000000,1303.886353 1138.747559,1214.617432 1160.644531,1124.735474 
	C1140.255127,1124.735474 1121.390137,1124.735474 1101.281982,1124.735474 
	C1089.589844,1190.219360 1077.933350,1255.504272 1065.987061,1322.412354 
	C1065.130127,1318.787842 1064.403076,1316.472290 1064.050903,1314.101196 
	C1061.657593,1297.980957 1059.685791,1281.790405 1056.935791,1265.732422 
	C1050.032471,1225.421631 1042.867432,1185.154785 1035.607910,1144.906372 
	C1034.331421,1137.829102 1032.088501,1130.926025 1030.304932,1122.075439 
	C1030.303711,1106.744873 1030.296875,1091.414429 1030.302856,1076.083862 
	C1030.307617,1063.755127 1030.315186,1051.426270 1030.345459,1039.097534 
	C1030.370605,1028.852295 1032.210449,1026.729614 1042.002930,1025.555908 
	C1042.994507,1025.437012 1044.002319,1025.437256 1044.988037,1025.287109 
	C1059.264893,1023.111206 1065.399536,1016.351929 1065.829590,1001.928894 
	C1066.057983,994.271545 1066.149902,986.590454 1065.812988,978.941711 
	C1065.517212,972.223450 1067.542847,966.486877 1071.598877,961.342102 
	C1074.279785,957.941528 1077.042725,954.600952 1079.875244,951.325500 
	C1087.768066,942.198425 1094.408203,932.334229 1099.207642,921.173706 
	C1104.866089,908.015381 1109.316284,905.673584 1124.146851,906.499756 
	C1155.072632,908.222595 1185.996704,909.985535 1216.931030,911.541626 
	C1263.837524,913.901184 1310.755371,916.031494 1357.661377,918.397766 
	C1376.287109,919.337402 1394.947021,920.127197 1413.485596,922.021729 
	C1421.945435,922.886353 1430.516602,925.390198 1438.382202,928.705017 
	C1450.235107,933.700317 1451.671997,946.988953 1441.957886,955.513794 
	C1439.967407,957.260559 1437.534790,958.494202 1435.464478,960.161133 
	C1427.505981,966.568481 1423.920654,974.755005 1426.336182,984.898804 
	C1428.464355,993.835632 1434.852783,998.891541 1446.499146,999.538818 
	C1467.764404,1000.720764 1489.080566,1001.967834 1510.357178,1001.703857 
	C1533.462036,1001.417236 1555.942017,996.430481 1577.596069,988.194946 
	C1580.990601,986.903931 1584.421753,985.380005 1587.367065,983.299866 
	C1595.761353,977.371338 1600.994873,969.477966 1599.840942,958.755920 
	C1598.691040,948.070312 1592.440308,940.688538 1582.429565,937.712402 
	C1573.193115,934.966309 1570.983643,929.434937 1571.339233,920.617310 
	C1571.834595,908.329102 1572.007690,895.923157 1570.897949,883.696533 
	C1568.528687,857.590515 1556.473877,835.445801 1540.449585,815.307190 
	C1526.092041,797.263184 1511.342896,798.392029 1499.354004,818.148315 
	C1493.952515,827.049255 1493.685181,826.713196 1483.380249,824.228455 
	C1464.967651,819.788574 1446.541016,815.112061 1427.866089,812.121094 
	C1396.562012,807.107483 1364.862061,806.722412 1333.211670,806.508423 
	C1309.887207,806.350769 1286.559692,806.491455 1263.237183,806.206543 
	C1245.848389,805.994080 1238.490234,799.322205 1236.228394,781.989136 
	C1229.293945,728.849915 1222.135742,675.736633 1215.704834,622.535828 
	C1208.674194,564.375427 1202.552490,506.105347 1195.588623,447.936462 
	C1193.933960,434.115448 1191.006714,420.384796 1187.722900,406.840942 
	C1185.223267,396.531891 1177.650024,390.567932 1167.183960,388.827515 
	C1162.942505,388.122223 1158.566284,388.094086 1154.246704,388.015869 
	C1128.934082,387.557648 1103.620972,387.080566 1078.306030,386.786926 
	C1015.671448,386.060303 953.036743,385.297882 890.400024,384.824097 
	C864.924011,384.631348 856.126831,393.895203 856.271667,419.216339 
	C856.336487,430.541870 856.286682,441.872803 856.003601,453.194183 
	C855.760742,462.904999 851.341736,470.037750 842.823242,475.207428 
	C817.807556,490.388855 787.034119,487.827942 766.545898,466.979218 
	C758.031799,458.315430 751.873840,447.330383 744.684753,437.371796 
	C735.735962,424.975555 727.958923,411.509125 717.680481,400.341309 
	C692.291931,372.755676 660.804138,357.950928 622.551514,360.234222 
	C606.130310,361.214478 590.435547,365.576508 575.121704,371.457703 
	C537.957886,385.730408 513.487000,411.656189 504.129333,450.559875 
	C495.571320,486.138763 487.360840,521.830017 480.220520,557.715210 
	C464.570496,636.367737 449.666138,715.168945 434.528595,793.923157 
	C431.574127,809.293884 428.184814,824.765625 430.855560,840.486267 
	C436.648376,874.584595 457.886902,895.299744 489.789032,905.700806 
	C512.745483,913.185242 536.431641,912.888000 560.017639,909.163086 
	C573.125549,907.092957 585.777344,907.600830 598.513367,911.350830 
	C606.792297,913.788391 615.280579,915.751282 623.808105,917.060913 
	C644.418213,920.226257 662.975220,916.208618 677.421387,899.872131 
	C689.445801,886.274109 694.827087,870.023376 695.133118,852.198425 
	C695.351685,839.463989 689.440857,829.596497 677.684387,824.216797 
	C671.076843,821.193298 664.082458,818.620972 656.992615,817.116028 
	C630.616028,811.516968 597.167419,824.427368 587.962891,845.921204 
	C584.924316,853.016785 578.700989,855.770508 570.973083,856.023987 
	C554.781616,856.555237 540.121155,851.626953 526.145447,844.128540 
	C519.301025,840.456238 515.619873,834.490540 513.644165,826.927734 
	C511.433807,818.466797 513.139282,810.273132 514.482117,802.175842 
	C523.464783,748.012451 531.626038,693.674927 542.309570,639.841553 
	C554.159668,580.129761 568.376526,520.886719 581.700439,461.470428 
	C582.630981,457.320526 584.073120,453.024536 586.341797,449.477234 
	C602.797302,423.747070 642.092163,418.593353 664.273132,439.446899 
	C670.030823,444.859985 674.863831,451.412933 679.392944,457.947357 
	C693.121521,477.754456 708.109619,496.417633 726.869690,511.719604 
	C751.773376,532.032654 780.231262,542.505493 812.542908,542.251465 
	C825.040405,542.153198 836.975464,539.433411 848.712646,535.519104 
	C855.033752,533.411072 860.889587,531.975159 865.052612,539.511108 
	C865.915344,541.072693 868.930908,541.847290 871.081238,542.191589 
	C873.667419,542.605652 876.390198,542.092407 879.052307,542.120361 
	C887.288269,542.206909 889.763855,544.496277 889.969177,552.787170 
	C890.274414,565.111755 890.523621,577.443176 890.451904,589.769775 
	C890.393860,599.753906 890.777222,609.880005 889.282166,619.686523 
	C886.485657,638.029663 893.137512,651.665771 907.916504,661.723206 
	C913.658691,665.631042 920.009460,668.720398 926.311035,671.700562 
	C929.783630,673.342834 932.336548,675.861328 931.327393,679.173645 
	C930.686646,681.276794 927.076904,682.513794 924.725891,684.026123 
	C924.232971,684.343140 923.404846,684.087402 922.759827,684.227295 
	C916.321167,685.624695 915.014526,687.363037 916.428650,693.955322 
	C917.533386,699.105896 919.221558,704.131348 921.000366,710.456482 
	C916.666565,711.099426 912.898254,712.092957 909.117737,712.141907 
	C895.123901,712.322876 881.111084,711.776611 867.133362,712.279480 
	C848.004639,712.967712 841.271729,722.860596 841.361694,737.296692 
	C841.498718,759.275024 840.304016,781.267761 840.702026,803.235779 
	C840.919800,815.255798 837.274841,825.267212 830.623291,834.849609 
	C827.057739,839.986267 824.113892,845.621399 821.444397,851.292725 
	C819.188416,856.085449 815.801453,859.287231 811.290649,861.846252 
	C805.517822,865.121216 799.528748,868.283752 794.466614,872.496460 
	C772.069153,891.135254 769.173157,917.528748 786.571533,940.866821 
	C789.757019,945.139709 793.177002,949.246521 796.205261,953.626038 
	C802.807739,963.174988 806.502747,973.617249 806.255554,985.454895 
	C806.138306,991.073730 807.179993,996.714111 807.652344,1002.348450 
	C808.652100,1014.273865 815.986084,1020.811462 826.672974,1024.089478 
	C830.424316,1025.240112 834.531189,1025.529663 838.491516,1025.638794 
	C846.817139,1025.868530 855.155273,1025.604736 863.484436,1025.754395 
	C873.306213,1025.930908 873.982361,1026.731934 874.142456,1036.895142 
	C874.173950,1038.894287 874.151672,1040.894287 874.147644,1042.893921 
	C874.093323,1069.888062 874.037842,1096.882324 872.135864,1124.210083 
	C860.298462,1124.210083 848.461121,1124.210083 836.127319,1124.210083 
	C836.451477,1127.130493 836.479553,1128.772827 836.830750,1130.342773 
	C844.862854,1166.254639 852.997498,1202.143799 860.964905,1238.069824 
	C865.557129,1258.776733 869.889465,1279.541504 874.066467,1302.078369 
	C873.961243,1345.970703 873.849243,1389.863159 873.772644,1433.755493 
	C873.769226,1435.729248 873.653687,1437.898071 874.419189,1439.604004 
	C874.875122,1440.620117 876.950806,1440.909424 879.953979,1442.282104 
	C879.953979,1437.441650 879.953918,1433.908936 879.953979,1430.376099 
	C879.953979,1400.780762 879.919556,1371.185181 879.990051,1341.590088 
	C880.001099,1336.950806 880.489014,1332.312744 881.491638,1329.480225 
	C886.299255,1350.826294 891.106934,1372.172363 895.954468,1393.695312 
	C917.364563,1393.695312 938.188110,1393.695312 959.130127,1393.695312 
	C959.923889,1390.746094 960.730957,1388.246704 961.264343,1385.690186 
	C968.178772,1352.554199 975.192383,1319.437866 981.893921,1286.258667 
	C986.886108,1261.542480 991.461853,1236.742188 997.155457,1211.555176 
	C998.041992,1211.046997 998.928467,1210.538818 1000.300903,1211.632202 
	C1003.232727,1230.628784 1005.889282,1249.672852 1009.160522,1268.610718 
	C1014.180359,1297.672119 1019.622986,1326.660278 1024.591309,1357.186768 
	C1024.540649,1381.468018 1024.485596,1405.749268 1024.449585,1430.030518 
	C1024.447144,1431.689209 1024.056030,1433.663696 1024.802979,1434.923706 
	C1025.655518,1436.361572 1027.581177,1437.162964 1030.490845,1439.312622 
	C1030.905273,1422.210327 1031.265625,1407.335571 1033.160400,1393.710693 
M1112.127930,1682.947388 
	C1071.606201,1681.823608 1031.092773,1682.042603 990.401245,1682.308350 
	C990.401245,1837.189087 990.401245,1990.672729 990.401245,2144.497559 
	C1136.039429,2144.497559 1281.117432,2144.497559 1426.526611,2144.497559 
	C1426.526611,2096.638916 1426.526611,2049.530029 1426.526611,2001.429443 
	C1339.302856,2001.429443 1252.791870,2001.429443 1165.900391,2001.429443 
	C1165.900391,1961.308350 1165.900391,1922.185547 1165.900391,1882.064453 
	C1243.705933,1882.064453 1320.865112,1882.064453 1397.810303,1882.064453 
	C1400.178467,1870.536377 1399.680664,1747.863525 1397.113770,1739.865234 
	C1320.291748,1739.865234 1243.130859,1739.865234 1164.842529,1739.865234 
	C1164.842529,1721.003662 1164.842529,1703.165527 1164.842529,1684.597046 
	C1147.149048,1684.114868 1130.564453,1683.662964 1112.127930,1682.947388 
M578.316284,1958.605835 
	C586.235718,2004.844360 594.146362,2051.084229 602.079468,2097.320557 
	C604.773193,2113.020264 607.523682,2128.710205 610.284241,2144.612061 
	C674.138916,2144.612061 737.294556,2144.612061 801.031067,2144.612061 
	C838.666382,1991.794678 876.188782,1839.435913 914.040222,1685.740967 
	C859.065735,1688.538940 805.404785,1691.465088 751.400574,1696.584106 
	C748.493225,1714.779175 745.638062,1732.140503 742.963135,1749.529663 
	C740.281738,1766.960449 737.772156,1784.417603 735.202148,1801.865479 
	C732.680908,1818.982422 730.174866,1836.101562 727.668762,1853.220703 
	C725.114258,1870.670166 722.689453,1888.139771 719.983154,1905.565552 
	C717.343628,1922.561035 716.044250,1939.803345 711.572998,1956.498047 
	C700.720703,1872.202026 689.676758,1788.170044 675.313782,1703.574219 
	C630.698669,1707.542969 586.936951,1712.780029 542.489746,1718.426147 
	C543.720398,1728.746582 544.700684,1738.267700 546.013184,1747.742676 
	C550.989685,1783.667847 555.722778,1819.631958 561.219055,1855.478271 
	C566.412048,1889.347046 572.449463,1923.086060 578.316284,1958.605835 
M187.919617,1813.212036 
	C213.313477,1923.733032 238.707352,2034.254150 264.109344,2144.810547 
	C329.132324,2144.810547 393.039093,2144.810547 457.531433,2144.810547 
	C458.376068,2141.004395 459.240234,2137.482910 459.933289,2133.927979 
	C465.027222,2107.797852 470.081116,2081.659668 475.158569,2055.526367 
	C486.709503,1996.074585 498.813354,1936.723267 509.642426,1877.140381 
	C517.793701,1832.291382 524.352417,1787.152222 531.519958,1742.126343 
	C532.649902,1735.027954 533.249207,1727.845093 534.248962,1719.388916 
	C492.775116,1723.929810 452.743774,1729.332275 412.347992,1735.807617 
	C405.609131,1774.215088 398.691681,1811.825928 392.480347,1849.552979 
	C386.323547,1886.948975 380.878296,1924.462280 375.120911,1961.924072 
	C374.486084,1961.961548 373.851257,1961.999023 373.216431,1962.036377 
	C362.783264,1890.779297 352.350098,1819.522217 341.773590,1747.286133 
	C286.967041,1756.609619 233.682892,1767.102417 180.099045,1779.387939 
	C182.792740,1790.934326 185.200348,1801.254517 187.919617,1813.212036 
M1669.714355,1941.000000 
	C1669.714355,1899.415161 1669.714355,1857.830444 1669.714355,1816.186401 
	C1639.436401,1807.616333 1609.575195,1800.607056 1580.753662,1790.602417 
	C1551.644043,1780.497803 1523.565186,1767.424072 1494.881836,1755.587769 
	C1494.881836,1885.023560 1494.881836,2014.705811 1494.881836,2144.568359 
	C1636.765625,2144.568359 1777.910278,2144.568359 1919.200562,2144.568359 
	C1919.200562,2095.745117 1919.200562,2047.604858 1919.200562,1998.486938 
	C1906.634766,1998.486938 1894.710693,1998.487061 1882.786499,1998.487061 
	C1871.121094,1998.487061 1859.455688,1998.487061 1847.790283,1998.487061 
	C1835.791504,1998.487061 1823.792847,1998.487061 1811.794067,1998.487061 
	C1800.128662,1998.487061 1788.463257,1998.487061 1776.797852,1998.487061 
	C1764.799194,1998.487061 1752.800415,1998.487061 1740.801758,1998.487061 
	C1729.136353,1998.487061 1717.469971,1998.575195 1705.805664,1998.462036 
	C1693.972046,1998.347290 1682.097778,1998.968750 1669.714233,1997.993530 
	C1669.714233,1978.919434 1669.714233,1960.959717 1669.714355,1941.000000 
M1966.748779,2073.000000 
	C1967.088379,2096.816650 1966.039307,2120.666992 1967.348633,2144.625488 
	C2109.568359,2144.625488 2250.656006,2144.625488 2391.743164,2144.625488 
	C2392.218262,2143.129395 2392.765625,2142.208496 2392.767334,2141.286865 
	C2392.841553,2095.979248 2392.875244,2050.671631 2392.874268,2005.364014 
	C2392.874268,2003.727783 2392.504883,2002.087891 2392.250732,2000.458618 
	C2392.205078,2000.165527 2391.905029,1999.893066 2391.678467,1999.652832 
	C2391.462402,1999.423584 2391.188965,1999.248779 2390.235352,1998.484863 
	C2374.312256,1998.484863 2357.677490,1998.484741 2341.042969,1998.484741 
	C2324.385498,1998.484741 2307.727783,1998.484741 2291.070312,1998.484741 
	C2274.745850,1998.484741 2258.421631,1998.484741 2242.097168,1998.484741 
	C2225.439697,1998.484741 2208.781982,1998.550293 2192.124756,1998.466187 
	C2175.657227,1998.382935 2159.165283,1998.842529 2142.161865,1998.146729 
	C2142.161865,1987.415283 2142.161865,1978.122681 2142.161865,1968.829956 
	C2142.161865,1959.834961 2142.161865,1950.839844 2142.161865,1941.844849 
	C2142.161865,1932.516602 2142.261963,1923.187012 2142.133545,1913.860474 
	C2142.007080,1904.700317 2142.712158,1895.475708 2141.620361,1886.216064 
	C2121.140869,1885.441772 2101.841064,1884.914062 2082.564697,1883.926392 
	C2063.279541,1882.938110 2044.030762,1881.205688 2024.742188,1880.323853 
	C2005.662109,1879.451660 1986.723633,1875.947998 1966.749756,1876.112305 
	C1966.749756,1941.836060 1966.749756,2006.418091 1966.748779,2073.000000 
M1413.679443,1582.654541 
	C1413.595581,1539.661743 1413.512573,1496.668945 1413.401855,1453.676270 
	C1413.401123,1453.414795 1413.027710,1453.140259 1412.800781,1452.897705 
	C1412.579590,1452.661377 1412.322876,1452.458374 1412.130249,1452.284424 
	C1271.620728,1452.284424 1131.113770,1452.284424 990.473816,1452.284424 
	C990.473816,1515.352661 990.473816,1577.801636 990.473816,1640.212891 
	C1048.643799,1641.015259 1106.172119,1641.808838 1165.158203,1642.622437 
	C1165.158203,1626.657959 1165.158203,1610.587280 1165.158203,1593.484619 
	C1248.733276,1593.484619 1330.856201,1593.484619 1413.679199,1593.484619 
	C1413.679199,1589.800293 1413.679199,1587.181152 1413.679443,1582.654541 
M1966.888550,1668.999756 
	C1966.888550,1723.814087 1966.888550,1778.628540 1966.888550,1833.183594 
	C2001.958252,1839.234863 2124.158447,1846.151611 2141.452637,1843.190796 
	C2141.452637,1712.880249 2141.452637,1582.540039 2141.452637,1452.035034 
	C2083.175049,1452.035034 2025.616455,1452.035034 1966.889282,1452.035034 
	C1966.889282,1523.933228 1966.889282,1595.466553 1966.888550,1668.999756 
M1422.723877,1257.765137 
	C1421.466309,1261.557251 1420.142090,1265.328979 1418.962280,1269.145020 
	C1413.258911,1287.592285 1411.295776,1306.486328 1414.943848,1325.428711 
	C1421.244263,1358.142456 1441.846191,1379.838745 1471.067871,1393.758057 
	C1504.782471,1409.817261 1540.232056,1412.247681 1576.459229,1404.759888 
	C1585.204346,1402.952393 1593.891968,1400.196289 1602.139038,1396.756836 
	C1653.856323,1375.188110 1677.306519,1329.062378 1664.938965,1274.401611 
	C1658.948975,1247.927979 1646.753662,1224.435913 1631.082886,1202.611328 
	C1605.754761,1167.337646 1574.419678,1138.113892 1539.484619,1112.589722 
	C1538.235107,1111.677002 1536.687988,1111.171631 1535.144531,1110.409790 
	C1509.822144,1133.851562 1486.059448,1158.088379 1465.257812,1185.107422 
	C1448.322998,1207.104004 1433.341553,1230.254883 1422.723877,1257.765137 
M1669.681641,1481.010376 
	C1669.681641,1471.465820 1669.681641,1461.921265 1669.681641,1452.248291 
	C1610.632446,1452.248291 1552.849121,1452.248291 1494.618408,1452.248291 
	C1494.618408,1539.270020 1494.618408,1625.708252 1494.618408,1711.864502 
	C1530.970825,1734.131592 1640.259399,1772.148193 1669.681519,1772.671143 
	C1669.681519,1676.110107 1669.681519,1579.558960 1669.681641,1481.010376 
M638.897156,1665.853271 
	C650.939819,1664.466675 662.982483,1663.080078 675.390869,1661.651489 
	C663.982361,1591.052246 652.796143,1521.828735 641.563293,1452.316650 
	C578.877991,1452.316650 516.788452,1452.316650 454.450989,1452.316650 
	C440.476532,1532.989868 426.604309,1613.072998 412.602051,1693.906738 
	C453.944214,1688.316895 493.761017,1682.933228 534.305786,1677.451172 
	C535.585876,1669.890259 536.864136,1662.340088 538.142395,1654.789917 
	C538.626526,1654.851685 539.110657,1654.913452 539.594727,1654.975342 
	C540.587463,1661.812012 541.580200,1668.648682 542.695007,1676.325928 
	C547.981689,1675.922363 552.880981,1675.705078 557.741943,1675.151367 
	C584.191833,1672.139404 610.632385,1669.044556 638.897156,1665.853271 
M148.450958,1600.589600 
	C159.013474,1646.191040 169.576004,1691.792603 180.103165,1737.241455 
	C234.571701,1726.417114 287.938477,1715.811768 341.725708,1705.122925 
	C328.506592,1620.431641 315.384918,1536.364502 302.267303,1452.323486 
	C239.259033,1452.323486 177.162262,1452.323486 114.517998,1452.323486 
	C125.840050,1501.692505 136.991669,1550.318237 148.450958,1600.589600 
M456.020325,1319.142944 
	C469.120911,1344.138428 482.221497,1369.133789 495.353119,1394.188477 
	C506.083527,1394.188477 516.058533,1394.255981 526.032166,1394.169312 
	C535.870178,1394.083862 545.744995,1394.562500 555.415649,1393.854370 
	C555.415649,1303.490601 555.415649,1214.357910 555.415649,1125.045654 
	C537.737854,1125.045654 520.675476,1125.045654 502.900055,1125.045654 
	C503.011322,1186.813477 501.657074,1247.842529 506.871643,1309.043701 
	C505.370422,1308.745728 504.822449,1308.775146 504.748901,1308.602417 
	C502.277618,1302.805664 499.820374,1297.002563 497.423706,1291.174561 
	C474.318634,1234.988647 443.032349,1182.957764 415.264160,1129.139038 
	C412.966187,1124.685303 409.746490,1124.215820 405.505463,1124.246460 
	C388.181519,1124.371338 370.856110,1124.276978 353.531403,1124.322144 
	C350.969604,1124.328735 348.408600,1124.650757 345.615906,1124.842773 
	C345.615906,1214.812500 345.615906,1304.199951 345.615906,1394.188477 
	C354.992157,1394.188477 363.629181,1394.226318 372.265686,1394.177612 
	C380.767181,1394.129761 389.268188,1393.994019 397.191406,1393.903442 
	C397.191406,1328.169556 397.191406,1263.730713 397.191406,1199.291992 
	C414.727142,1239.592651 434.582764,1278.927734 456.020325,1319.142944 
M593.309326,1327.695068 
	C607.890930,1360.138916 631.699890,1382.424194 665.823181,1393.157715 
	C682.890686,1398.526245 700.481812,1399.666138 718.200073,1398.092407 
	C768.382385,1393.635498 804.598938,1369.225708 824.032898,1322.158325 
	C836.128906,1292.863159 838.473206,1262.156128 834.040527,1230.922974 
	C825.908203,1173.621826 788.412231,1128.230469 727.250793,1121.056885 
	C671.577759,1114.526733 616.265808,1138.187378 592.137329,1197.830200 
	C574.898743,1240.442383 575.655701,1283.567261 593.309326,1327.695068 
M1942.311768,1133.871094 
	C1942.311768,1220.373657 1942.311768,1306.876343 1942.311768,1393.576416 
	C1962.029541,1393.576416 1980.499878,1393.576416 2000.169189,1393.576416 
	C2000.169189,1358.239136 2000.169189,1323.489990 2000.169189,1288.184448 
	C2005.324707,1288.184448 2009.286011,1288.164062 2013.247070,1288.187866 
	C2037.903931,1288.335938 2048.144043,1296.025757 2055.127686,1319.722290 
	C2056.161377,1323.229370 2056.955322,1326.808838 2057.807373,1330.367432 
	C2060.750977,1342.661133 2063.434326,1355.023560 2066.680420,1367.236450 
	C2069.051758,1376.158569 2072.152344,1384.886719 2074.926758,1393.697632 
	C2095.161621,1393.697632 2114.329102,1393.697632 2133.702393,1393.697632 
	C2127.088867,1368.123779 2120.636475,1343.046509 2114.112793,1317.988037 
	C2108.807129,1297.607910 2101.256348,1278.624268 2080.776367,1267.301270 
	C2083.797607,1265.537109 2086.004639,1264.250610 2088.209717,1262.960449 
	C2110.178223,1250.106201 2123.109863,1231.135742 2124.777588,1205.675537 
	C2127.159668,1169.317505 2111.750977,1140.396851 2073.397705,1128.999146 
	C2064.844238,1126.457397 2055.870117,1125.090210 2046.992310,1123.925415 
	C2021.055176,1120.522461 1995.105835,1122.807007 1969.190186,1124.554443 
	C1961.900391,1125.045776 1954.669312,1126.407471 1947.410889,1127.366943 
	C1944.607544,1127.737427 1942.095825,1128.415649 1942.311768,1133.871094 
M219.763931,1180.650635 
	C207.018936,1200.744995 194.273926,1220.839355 181.528931,1240.933594 
	C181.025452,1240.847534 180.521988,1240.761353 180.018524,1240.675171 
	C180.018524,1231.200806 180.018524,1221.726562 180.018524,1212.252197 
	C180.018524,1202.589722 180.018524,1192.927246 180.018524,1183.264771 
	C180.018524,1173.269165 180.089645,1163.272827 179.998001,1153.278076 
	C179.910919,1143.781128 180.425720,1134.241455 179.596649,1124.301147 
	C169.090912,1124.301147 159.792953,1124.228638 150.496643,1124.321655 
	C141.340393,1124.413330 132.138031,1123.901978 123.195885,1124.670776 
	C123.195885,1215.149536 123.195885,1304.298340 123.195885,1393.524414 
	C142.328781,1393.524414 160.801254,1393.524414 180.018463,1393.524414 
	C180.018463,1389.599121 180.018417,1386.328735 180.018463,1383.058228 
	C180.018829,1360.068237 179.961472,1337.077881 180.085693,1314.088623 
	C180.103119,1310.866821 180.016449,1306.959229 181.685593,1304.554565 
	C187.674255,1295.927368 194.396210,1287.808960 201.729263,1278.352783 
	C222.839493,1317.707275 243.243469,1355.745117 263.550659,1393.602539 
	C285.979462,1393.602539 307.744080,1393.602539 331.098053,1393.602539 
	C301.264679,1341.489258 272.071686,1290.494629 243.254272,1240.156128 
	C243.754715,1238.759033 243.800354,1238.396729 243.988876,1238.138550 
	C270.511566,1201.834229 297.046417,1165.538696 323.565552,1129.231812 
	C324.146881,1128.436035 324.580170,1127.526001 325.026459,1126.641113 
	C325.157349,1126.381714 325.159332,1126.012817 325.103424,1125.715942 
	C325.043518,1125.397827 324.845703,1125.105835 324.681213,1124.743164 
	C301.842255,1124.743164 278.979248,1124.743164 255.816101,1124.743164 
	C243.968964,1143.075684 232.231583,1161.238403 219.763931,1180.650635 
M761.855774,1590.632812 
	C758.467468,1611.545044 755.079224,1632.457275 751.520325,1654.422607 
	C806.431519,1650.879761 860.094849,1647.417358 914.073181,1643.934692 
	C929.838745,1579.858032 945.466003,1516.343384 961.223267,1452.300293 
	C901.357300,1452.300293 842.873352,1452.300293 784.117920,1452.300293 
	C776.696838,1498.215454 769.368530,1543.556763 761.855774,1590.632812 
M1844.547119,1205.000000 
	C1844.422607,1233.650757 1844.432251,1262.303101 1844.111084,1290.951660 
	C1843.971802,1303.386108 1841.461792,1315.459106 1835.906128,1326.682861 
	C1830.467896,1337.669556 1822.078613,1345.244995 1809.864624,1348.181885 
	C1786.818726,1353.723389 1767.855713,1344.235840 1758.960449,1322.320312 
	C1753.492432,1308.848999 1752.011597,1294.634644 1752.014160,1280.211792 
	C1752.022827,1231.900513 1752.025391,1183.589233 1751.995605,1135.277954 
	C1751.993408,1131.779175 1751.714111,1128.280762 1751.569580,1124.918701 
	C1731.857788,1124.918701 1713.349854,1124.918701 1694.855713,1124.918701 
	C1694.488403,1126.437500 1694.062500,1127.375854 1694.063477,1128.313721 
	C1694.118774,1182.619873 1693.906494,1236.929077 1694.475708,1291.230225 
	C1694.653809,1308.229614 1698.101318,1324.994385 1704.296387,1340.982178 
	C1715.129517,1368.939575 1734.565552,1387.499756 1763.941406,1395.049438 
	C1778.968262,1398.911255 1794.241577,1399.056274 1809.593506,1398.126709 
	C1850.284546,1395.662354 1880.775635,1372.534424 1893.852539,1333.973022 
	C1899.898071,1316.145874 1902.219727,1297.718262 1902.196533,1278.928101 
	C1902.137451,1230.949951 1902.186401,1182.971924 1902.160400,1134.993774 
	C1902.158691,1131.755493 1901.893555,1128.517578 1901.730713,1124.822754 
	C1882.620117,1124.822754 1864.152832,1124.822754 1844.547363,1124.822754 
	C1844.547363,1151.216431 1844.547363,1177.108276 1844.547119,1205.000000 
M1416.449585,1155.615845 
	C1421.652710,1145.475342 1427.642822,1135.701538 1432.462280,1124.515869 
	C1410.240479,1124.515869 1389.600708,1124.515869 1367.919800,1124.515869 
	C1353.026978,1162.515015 1338.065308,1200.690552 1322.839966,1239.538208 
	C1307.355835,1200.583618 1292.168335,1162.374878 1277.314697,1125.006592 
	C1254.601807,1125.006592 1233.523315,1125.006592 1211.585327,1125.006592 
	C1212.854492,1128.000366 1213.619141,1130.141235 1214.636353,1132.154541 
	C1238.812378,1180.001099 1262.949707,1227.867432 1287.299561,1275.625488 
	C1290.260864,1281.433594 1291.807739,1287.132568 1291.757568,1293.692383 
	C1291.528564,1323.684326 1291.643677,1353.678833 1291.676514,1383.672485 
	C1291.680176,1386.903076 1291.952148,1390.133545 1292.110962,1393.613037 
	C1311.259644,1393.613037 1329.722046,1393.613037 1349.129028,1393.613037 
	C1349.129028,1389.446777 1349.129150,1385.845703 1349.129150,1382.244507 
	C1349.129517,1351.584351 1349.193604,1320.924072 1349.070801,1290.264404 
	C1349.048828,1284.793701 1350.058960,1279.900757 1352.696045,1275.003296 
	C1373.850830,1235.713989 1394.812256,1196.320435 1416.449585,1155.615845 
z"/>
<path fill="#E7972B" opacity="1.000000" stroke="none" 
	d="
M873.982605,1123.876465 
	C874.037842,1096.882324 874.093323,1069.888062 874.147644,1042.893921 
	C874.151672,1040.894287 874.173950,1038.894287 874.142456,1036.895142 
	C873.982361,1026.731934 873.306213,1025.930908 863.484436,1025.754395 
	C855.155273,1025.604736 846.817139,1025.868530 838.491516,1025.638794 
	C834.531189,1025.529663 830.424316,1025.240112 826.672974,1024.089478 
	C815.986084,1020.811462 808.652100,1014.273865 807.652344,1002.348450 
	C807.179993,996.714111 806.138306,991.073730 806.255554,985.454895 
	C806.502747,973.617249 802.807739,963.174988 796.205261,953.626038 
	C793.177002,949.246521 789.757019,945.139709 786.571533,940.866821 
	C769.173157,917.528748 772.069153,891.135254 794.466614,872.496460 
	C799.528748,868.283752 805.517822,865.121216 811.290649,861.846252 
	C815.801453,859.287231 819.188416,856.085449 821.444397,851.292725 
	C824.113892,845.621399 827.057739,839.986267 830.623291,834.849609 
	C837.274841,825.267212 840.919800,815.255798 840.702026,803.235779 
	C840.304016,781.267761 841.498718,759.275024 841.361694,737.296692 
	C841.271729,722.860596 848.004639,712.967712 867.133362,712.279480 
	C881.111084,711.776611 895.123901,712.322876 909.117737,712.141907 
	C912.898254,712.092957 916.666565,711.099426 921.000366,710.456482 
	C919.221558,704.131348 917.533386,699.105896 916.428650,693.955322 
	C915.014526,687.363037 916.321167,685.624695 922.759827,684.227295 
	C923.404846,684.087402 924.232971,684.343140 924.725891,684.026123 
	C927.076904,682.513794 930.686646,681.276794 931.327393,679.173645 
	C932.336548,675.861328 929.783630,673.342834 926.311035,671.700562 
	C920.009460,668.720398 913.658691,665.631042 907.916504,661.723206 
	C893.137512,651.665771 886.485657,638.029663 889.282166,619.686523 
	C890.777222,609.880005 890.393860,599.753906 890.451904,589.769775 
	C890.523621,577.443176 890.274414,565.111755 889.969177,552.787170 
	C889.763855,544.496277 887.288269,542.206909 879.052307,542.120361 
	C876.390198,542.092407 873.667419,542.605652 871.081238,542.191589 
	C868.930908,541.847290 865.915344,541.072693 865.052612,539.511108 
	C860.889587,531.975159 855.033752,533.411072 848.712646,535.519104 
	C836.975464,539.433411 825.040405,542.153198 812.542908,542.251465 
	C780.231262,542.505493 751.773376,532.032654 726.869690,511.719604 
	C708.109619,496.417633 693.121521,477.754456 679.392944,457.947357 
	C674.863831,451.412933 670.030823,444.859985 664.273132,439.446899 
	C642.092163,418.593353 602.797302,423.747070 586.341797,449.477234 
	C584.073120,453.024536 582.630981,457.320526 581.700439,461.470428 
	C568.376526,520.886719 554.159668,580.129761 542.309570,639.841553 
	C531.626038,693.674927 523.464783,748.012451 514.482117,802.175842 
	C513.139282,810.273132 511.433807,818.466797 513.644165,826.927734 
	C515.619873,834.490540 519.301025,840.456238 526.145447,844.128540 
	C540.121155,851.626953 554.781616,856.555237 570.973083,856.023987 
	C578.700989,855.770508 584.924316,853.016785 587.962891,845.921204 
	C597.167419,824.427368 630.616028,811.516968 656.992615,817.116028 
	C664.082458,818.620972 671.076843,821.193298 677.684387,824.216797 
	C689.440857,829.596497 695.351685,839.463989 695.133118,852.198425 
	C694.827087,870.023376 689.445801,886.274109 677.421387,899.872131 
	C662.975220,916.208618 644.418213,920.226257 623.808105,917.060913 
	C615.280579,915.751282 606.792297,913.788391 598.513367,911.350830 
	C585.777344,907.600830 573.125549,907.092957 560.017639,909.163086 
	C536.431641,912.888000 512.745483,913.185242 489.789032,905.700806 
	C457.886902,895.299744 436.648376,874.584595 430.855560,840.486267 
	C428.184814,824.765625 431.574127,809.293884 434.528595,793.923157 
	C449.666138,715.168945 464.570496,636.367737 480.220520,557.715210 
	C487.360840,521.830017 495.571320,486.138763 504.129333,450.559875 
	C513.487000,411.656189 537.957886,385.730408 575.121704,371.457703 
	C590.435547,365.576508 606.130310,361.214478 622.551514,360.234222 
	C660.804138,357.950928 692.291931,372.755676 717.680481,400.341309 
	C727.958923,411.509125 735.735962,424.975555 744.684753,437.371796 
	C751.873840,447.330383 758.031799,458.315430 766.545898,466.979218 
	C787.034119,487.827942 817.807556,490.388855 842.823242,475.207428 
	C851.341736,470.037750 855.760742,462.904999 856.003601,453.194183 
	C856.286682,441.872803 856.336487,430.541870 856.271667,419.216339 
	C856.126831,393.895203 864.924011,384.631348 890.400024,384.824097 
	C953.036743,385.297882 1015.671448,386.060303 1078.306030,386.786926 
	C1103.620972,387.080566 1128.934082,387.557648 1154.246704,388.015869 
	C1158.566284,388.094086 1162.942505,388.122223 1167.183960,388.827515 
	C1177.650024,390.567932 1185.223267,396.531891 1187.722900,406.840942 
	C1191.006714,420.384796 1193.933960,434.115448 1195.588623,447.936462 
	C1202.552490,506.105347 1208.674194,564.375427 1215.704834,622.535828 
	C1222.135742,675.736633 1229.293945,728.849915 1236.228394,781.989136 
	C1238.490234,799.322205 1245.848389,805.994080 1263.237183,806.206543 
	C1286.559692,806.491455 1309.887207,806.350769 1333.211670,806.508423 
	C1364.862061,806.722412 1396.562012,807.107483 1427.866089,812.121094 
	C1446.541016,815.112061 1464.967651,819.788574 1483.380249,824.228455 
	C1493.685181,826.713196 1493.952515,827.049255 1499.354004,818.148315 
	C1511.342896,798.392029 1526.092041,797.263184 1540.449585,815.307190 
	C1556.473877,835.445801 1568.528687,857.590515 1570.897949,883.696533 
	C1572.007690,895.923157 1571.834595,908.329102 1571.339233,920.617310 
	C1570.983643,929.434937 1573.193115,934.966309 1582.429565,937.712402 
	C1592.440308,940.688538 1598.691040,948.070312 1599.840942,958.755920 
	C1600.994873,969.477966 1595.761353,977.371338 1587.367065,983.299866 
	C1584.421753,985.380005 1580.990601,986.903931 1577.596069,988.194946 
	C1555.942017,996.430481 1533.462036,1001.417236 1510.357178,1001.703857 
	C1489.080566,1001.967834 1467.764404,1000.720764 1446.499146,999.538818 
	C1434.852783,998.891541 1428.464355,993.835632 1426.336182,984.898804 
	C1423.920654,974.755005 1427.505981,966.568481 1435.464478,960.161133 
	C1437.534790,958.494202 1439.967407,957.260559 1441.957886,955.513794 
	C1451.671997,946.988953 1450.235107,933.700317 1438.382202,928.705017 
	C1430.516602,925.390198 1421.945435,922.886353 1413.485596,922.021729 
	C1394.947021,920.127197 1376.287109,919.337402 1357.661377,918.397766 
	C1310.755371,916.031494 1263.837524,913.901184 1216.931030,911.541626 
	C1185.996704,909.985535 1155.072632,908.222595 1124.146851,906.499756 
	C1109.316284,905.673584 1104.866089,908.015381 1099.207642,921.173706 
	C1094.408203,932.334229 1087.768066,942.198425 1079.875244,951.325500 
	C1077.042725,954.600952 1074.279785,957.941528 1071.598877,961.342102 
	C1067.542847,966.486877 1065.517212,972.223450 1065.812988,978.941711 
	C1066.149902,986.590454 1066.057983,994.271545 1065.829590,1001.928894 
	C1065.399536,1016.351929 1059.264893,1023.111206 1044.988037,1025.287109 
	C1044.002319,1025.437256 1042.994507,1025.437012 1042.002930,1025.555908 
	C1032.210449,1026.729614 1030.370605,1028.852295 1030.345459,1039.097534 
	C1030.315186,1051.426270 1030.307617,1063.755127 1030.302856,1076.083862 
	C1030.296875,1091.414429 1030.303711,1106.744873 1029.486084,1123.147217 
	C1027.580444,1124.105225 1026.493652,1123.991577 1025.438965,1122.948730 
	C1025.480469,1095.754639 1025.498047,1069.489624 1025.487061,1043.224731 
	C1025.485962,1040.570312 1025.571289,1037.875488 1025.166138,1035.269409 
	C1024.166138,1028.836548 1021.806396,1026.615234 1015.459778,1025.989502 
	C1012.823120,1025.729614 1010.145386,1025.854614 1007.486389,1025.858521 
	C979.892273,1025.899780 952.298218,1025.968750 924.704102,1025.993164 
	C913.733521,1026.002930 902.759644,1025.738892 891.793091,1025.931641 
	C880.949402,1026.121948 879.751343,1027.564575 879.766296,1038.109253 
	C879.806763,1066.701172 879.813843,1095.293091 879.109802,1124.036621 
	C876.917786,1124.084229 875.450195,1123.980347 873.982605,1123.876465 
M1032.246338,705.041931 
	C1036.106201,701.004883 1037.937012,696.239929 1038.063965,690.609070 
	C1038.972290,650.307861 1039.995605,610.009216 1040.941040,569.708862 
	C1041.116211,562.243958 1039.141846,555.534180 1033.750000,549.640991 
	C1028.839478,552.631042 1030.210327,557.029480 1030.187866,560.668701 
	C1030.037231,585.330139 1029.941040,609.994202 1030.161133,634.654419 
	C1030.249756,644.584290 1026.485352,652.043091 1018.147583,657.262268 
	C1011.654053,661.326965 1005.090820,665.281067 998.621338,669.383240 
	C994.421509,672.046265 990.112976,674.718872 989.747253,681.522156 
	C992.495544,682.411804 995.204773,683.344238 997.947327,684.165405 
	C1004.097656,686.007141 1005.560486,688.513550 1003.486267,694.371643 
	C1002.715027,696.549988 1001.333313,698.503906 1000.372742,700.624817 
	C995.930115,710.434204 998.232300,713.876831 1009.238831,714.141296 
	C1017.625305,714.342712 1024.948486,711.753479 1032.246338,705.041931 
M903.564148,429.037323 
	C900.817505,433.778778 902.646484,438.143921 905.093384,442.137726 
	C910.672668,451.244415 918.816223,456.775970 929.669189,456.294800 
	C940.830017,455.800049 948.516907,448.984192 954.286621,439.962311 
	C955.244080,438.465027 955.561279,436.104218 955.236389,434.312622 
	C952.624756,419.912109 931.890625,403.597809 915.422546,416.561432 
	C911.313782,419.795837 907.941833,423.966156 903.564148,429.037323 
M939.238892,543.270325 
	C934.537781,545.870605 934.115173,549.880005 935.833374,554.361389 
	C937.501770,558.712830 941.439453,558.414368 945.103821,558.382751 
	C954.400513,558.302490 963.697693,558.216797 972.992676,558.031555 
	C977.250793,557.946777 979.867615,555.851929 980.082520,551.378845 
	C980.280151,547.267334 978.663452,544.233826 974.557739,543.013306 
	C972.994202,542.548462 971.298401,542.322693 969.664978,542.332642 
	C960.040833,542.391113 950.417236,542.551208 939.238892,543.270325 
z"/>
<path fill="#E7972C" opacity="1.000000" stroke="none" 
	d="
M1113.053955,1683.079102 
	C1130.564453,1683.662964 1147.149048,1684.114868 1164.842529,1684.597046 
	C1164.842529,1703.165527 1164.842529,1721.003662 1164.842529,1739.865234 
	C1243.130859,1739.865234 1320.291748,1739.865234 1397.113770,1739.865234 
	C1399.680664,1747.863525 1400.178467,1870.536377 1397.810303,1882.064453 
	C1320.865112,1882.064453 1243.705933,1882.064453 1165.900391,1882.064453 
	C1165.900391,1922.185547 1165.900391,1961.308350 1165.900391,2001.429443 
	C1252.791870,2001.429443 1339.302856,2001.429443 1426.526611,2001.429443 
	C1426.526611,2049.530029 1426.526611,2096.638916 1426.526611,2144.497559 
	C1281.117432,2144.497559 1136.039429,2144.497559 990.401245,2144.497559 
	C990.401245,1990.672729 990.401245,1837.189087 990.401245,1682.308350 
	C1031.092773,1682.042603 1071.606201,1681.823608 1113.053955,1683.079102 
z"/>
<path fill="#E7972B" opacity="1.000000" stroke="none" 
	d="
M578.215881,1957.744019 
	C572.449463,1923.086060 566.412048,1889.347046 561.219055,1855.478271 
	C555.722778,1819.631958 550.989685,1783.667847 546.013184,1747.742676 
	C544.700684,1738.267700 543.720398,1728.746582 542.489746,1718.426147 
	C586.936951,1712.780029 630.698669,1707.542969 675.313782,1703.574219 
	C689.676758,1788.170044 700.720703,1872.202026 711.572998,1956.498047 
	C716.044250,1939.803345 717.343628,1922.561035 719.983154,1905.565552 
	C722.689453,1888.139771 725.114258,1870.670166 727.668762,1853.220703 
	C730.174866,1836.101562 732.680908,1818.982422 735.202148,1801.865479 
	C737.772156,1784.417603 740.281738,1766.960449 742.963135,1749.529663 
	C745.638062,1732.140503 748.493225,1714.779175 751.400574,1696.584106 
	C805.404785,1691.465088 859.065735,1688.538940 914.040222,1685.740967 
	C876.188782,1839.435913 838.666382,1991.794678 801.031067,2144.612061 
	C737.294556,2144.612061 674.138916,2144.612061 610.284241,2144.612061 
	C607.523682,2128.710205 604.773193,2113.020264 602.079468,2097.320557 
	C594.146362,2051.084229 586.235718,2004.844360 578.215881,1957.744019 
z"/>
<path fill="#E7972B" opacity="1.000000" stroke="none" 
	d="
M187.763794,1812.393311 
	C185.200348,1801.254517 182.792740,1790.934326 180.099045,1779.387939 
	C233.682892,1767.102417 286.967041,1756.609619 341.773590,1747.286133 
	C352.350098,1819.522217 362.783264,1890.779297 373.216431,1962.036377 
	C373.851257,1961.999023 374.486084,1961.961548 375.120911,1961.924072 
	C380.878296,1924.462280 386.323547,1886.948975 392.480347,1849.552979 
	C398.691681,1811.825928 405.609131,1774.215088 412.347992,1735.807617 
	C452.743774,1729.332275 492.775116,1723.929810 534.248962,1719.388916 
	C533.249207,1727.845093 532.649902,1735.027954 531.519958,1742.126343 
	C524.352417,1787.152222 517.793701,1832.291382 509.642426,1877.140381 
	C498.813354,1936.723267 486.709503,1996.074585 475.158569,2055.526367 
	C470.081116,2081.659668 465.027222,2107.797852 459.933289,2133.927979 
	C459.240234,2137.482910 458.376068,2141.004395 457.531433,2144.810547 
	C393.039093,2144.810547 329.132324,2144.810547 264.109344,2144.810547 
	C238.707352,2034.254150 213.313477,1923.733032 187.763794,1812.393311 
z"/>
<path fill="#E7972C" opacity="1.000000" stroke="none" 
	d="
M1669.714355,1942.000000 
	C1669.714233,1960.959717 1669.714233,1978.919434 1669.714233,1997.993530 
	C1682.097778,1998.968750 1693.972046,1998.347290 1705.805664,1998.462036 
	C1717.469971,1998.575195 1729.136353,1998.487061 1740.801758,1998.487061 
	C1752.800415,1998.487061 1764.799194,1998.487061 1776.797852,1998.487061 
	C1788.463257,1998.487061 1800.128662,1998.487061 1811.794067,1998.487061 
	C1823.792847,1998.487061 1835.791504,1998.487061 1847.790283,1998.487061 
	C1859.455688,1998.487061 1871.121094,1998.487061 1882.786499,1998.487061 
	C1894.710693,1998.487061 1906.634766,1998.486938 1919.200562,1998.486938 
	C1919.200562,2047.604858 1919.200562,2095.745117 1919.200562,2144.568359 
	C1777.910278,2144.568359 1636.765625,2144.568359 1494.881836,2144.568359 
	C1494.881836,2014.705811 1494.881836,1885.023560 1494.881836,1755.587769 
	C1523.565186,1767.424072 1551.644043,1780.497803 1580.753662,1790.602417 
	C1609.575195,1800.607056 1639.436401,1807.616333 1669.714355,1816.186401 
	C1669.714355,1857.830444 1669.714355,1899.415161 1669.714355,1942.000000 
z"/>
<path fill="#E7972C" opacity="1.000000" stroke="none" 
	d="
M1966.749268,2072.000000 
	C1966.749756,2006.418091 1966.749756,1941.836060 1966.749756,1876.112305 
	C1986.723633,1875.947998 2005.662109,1879.451660 2024.742188,1880.323853 
	C2044.030762,1881.205688 2063.279541,1882.938110 2082.564697,1883.926392 
	C2101.841064,1884.914062 2121.140869,1885.441772 2141.620361,1886.216064 
	C2142.712158,1895.475708 2142.007080,1904.700317 2142.133545,1913.860474 
	C2142.261963,1923.187012 2142.161865,1932.516602 2142.161865,1941.844849 
	C2142.161865,1950.839844 2142.161865,1959.834961 2142.161865,1968.829956 
	C2142.161865,1978.122681 2142.161865,1987.415283 2142.161865,1998.146729 
	C2159.165283,1998.842529 2175.657227,1998.382935 2192.124756,1998.466187 
	C2208.781982,1998.550293 2225.439697,1998.484741 2242.097168,1998.484741 
	C2258.421631,1998.484741 2274.745850,1998.484741 2291.070312,1998.484741 
	C2307.727783,1998.484741 2324.385498,1998.484741 2341.042969,1998.484741 
	C2357.677490,1998.484741 2374.312256,1998.484863 2390.235352,1998.484863 
	C2391.188965,1999.248779 2391.462402,1999.423584 2391.678467,1999.652832 
	C2391.905029,1999.893066 2392.205078,2000.165527 2392.250732,2000.458618 
	C2392.504883,2002.087891 2392.874268,2003.727783 2392.874268,2005.364014 
	C2392.875244,2050.671631 2392.841553,2095.979248 2392.767334,2141.286865 
	C2392.765625,2142.208496 2392.218262,2143.129395 2391.743164,2144.625488 
	C2250.656006,2144.625488 2109.568359,2144.625488 1967.348633,2144.625488 
	C1966.039307,2120.666992 1967.088379,2096.816650 1966.749268,2072.000000 
z"/>
<path fill="#017BA6" opacity="1.000000" stroke="none" 
	d="
M1413.679321,1583.608154 
	C1413.679199,1587.181152 1413.679199,1589.800293 1413.679199,1593.484619 
	C1330.856201,1593.484619 1248.733276,1593.484619 1165.158203,1593.484619 
	C1165.158203,1610.587280 1165.158203,1626.657959 1165.158203,1642.622437 
	C1106.172119,1641.808838 1048.643799,1641.015259 990.473816,1640.212891 
	C990.473816,1577.801636 990.473816,1515.352661 990.473816,1452.284424 
	C1131.113770,1452.284424 1271.620728,1452.284424 1412.130249,1452.284424 
	C1412.322876,1452.458374 1412.579590,1452.661377 1412.800781,1452.897705 
	C1413.027710,1453.140259 1413.401123,1453.414795 1413.401855,1453.676270 
	C1413.512573,1496.668945 1413.595581,1539.661743 1413.679321,1583.608154 
z"/>
<path fill="#027BA7" opacity="1.000000" stroke="none" 
	d="
M1966.888916,1667.999756 
	C1966.889282,1595.466553 1966.889282,1523.933228 1966.889282,1452.035034 
	C2025.616455,1452.035034 2083.175049,1452.035034 2141.452637,1452.035034 
	C2141.452637,1582.540039 2141.452637,1712.880249 2141.452637,1843.190796 
	C2124.158447,1846.151611 2001.958252,1839.234863 1966.888550,1833.183594 
	C1966.888550,1778.628540 1966.888550,1723.814087 1966.888916,1667.999756 
z"/>
<path fill="#017BA7" opacity="1.000000" stroke="none" 
	d="
M1423.053711,1257.060059 
	C1433.341553,1230.254883 1448.322998,1207.104004 1465.257812,1185.107422 
	C1486.059448,1158.088379 1509.822144,1133.851562 1535.144531,1110.409790 
	C1536.687988,1111.171631 1538.235107,1111.677002 1539.484619,1112.589722 
	C1574.419678,1138.113892 1605.754761,1167.337646 1631.082886,1202.611328 
	C1646.753662,1224.435913 1658.948975,1247.927979 1664.938965,1274.401611 
	C1677.306519,1329.062378 1653.856323,1375.188110 1602.139038,1396.756836 
	C1593.891968,1400.196289 1585.204346,1402.952393 1576.459229,1404.759888 
	C1540.232056,1412.247681 1504.782471,1409.817261 1471.067871,1393.758057 
	C1441.846191,1379.838745 1421.244263,1358.142456 1414.943848,1325.428711 
	C1411.295776,1306.486328 1413.258911,1287.592285 1418.962280,1269.145020 
	C1420.142090,1265.328979 1421.466309,1261.557251 1423.053711,1257.060059 
M1600.909424,1301.841919 
	C1598.063354,1310.778320 1590.966187,1315.472900 1583.499512,1320.181885 
	C1577.399170,1324.029419 1571.330933,1328.376343 1566.491699,1333.644043 
	C1561.994995,1338.538940 1563.515137,1342.512817 1569.253418,1345.754517 
	C1581.095093,1352.444092 1598.588257,1348.110352 1606.650879,1336.490112 
	C1615.577881,1323.623779 1613.558960,1304.761841 1602.086548,1295.507935 
	C1601.827148,1297.246216 1601.586060,1298.861938 1600.909424,1301.841919 
z"/>
<path fill="#027BA7" opacity="1.000000" stroke="none" 
	d="
M1669.681641,1482.009033 
	C1669.681519,1579.558960 1669.681519,1676.110107 1669.681519,1772.671143 
	C1640.259399,1772.148193 1530.970825,1734.131592 1494.618408,1711.864502 
	C1494.618408,1625.708252 1494.618408,1539.270020 1494.618408,1452.248291 
	C1552.849121,1452.248291 1610.632446,1452.248291 1669.681641,1452.248291 
	C1669.681641,1461.921265 1669.681641,1471.465820 1669.681641,1482.009033 
z"/>
<path fill="#017BA6" opacity="1.000000" stroke="none" 
	d="
M637.986633,1665.915771 
	C610.632385,1669.044556 584.191833,1672.139404 557.741943,1675.151367 
	C552.880981,1675.705078 547.981689,1675.922363 542.695007,1676.325928 
	C541.580200,1668.648682 540.587463,1661.812012 539.594727,1654.975342 
	C539.110657,1654.913452 538.626526,1654.851685 538.142395,1654.789917 
	C536.864136,1662.340088 535.585876,1669.890259 534.305786,1677.451172 
	C493.761017,1682.933228 453.944214,1688.316895 412.602051,1693.906738 
	C426.604309,1613.072998 440.476532,1532.989868 454.450989,1452.316650 
	C516.788452,1452.316650 578.877991,1452.316650 641.563293,1452.316650 
	C652.796143,1521.828735 663.982361,1591.052246 675.390869,1661.651489 
	C662.982483,1663.080078 650.939819,1664.466675 637.986633,1665.915771 
z"/>
<path fill="#037CA7" opacity="1.000000" stroke="none" 
	d="
M1025.406860,1123.877808 
	C1026.493652,1123.991577 1027.580444,1124.105225 1029.479492,1124.080811 
	C1032.088501,1130.926025 1034.331421,1137.829102 1035.607910,1144.906372 
	C1042.867432,1185.154785 1050.032471,1225.421631 1056.935791,1265.732422 
	C1059.685791,1281.790405 1061.657593,1297.980957 1064.050903,1314.101196 
	C1064.403076,1316.472290 1065.130127,1318.787842 1065.987061,1322.412354 
	C1077.933350,1255.504272 1089.589844,1190.219360 1101.281982,1124.735474 
	C1121.390137,1124.735474 1140.255127,1124.735474 1160.644531,1124.735474 
	C1138.747559,1214.617432 1117.000000,1303.886353 1095.117188,1393.710693 
	C1074.239868,1393.710693 1053.700195,1393.710693 1032.459473,1392.426514 
	C1029.467773,1379.321289 1027.177002,1367.500488 1024.886230,1355.679565 
	C1019.622986,1326.660278 1014.180359,1297.672119 1009.160522,1268.610718 
	C1005.889282,1249.672852 1003.232727,1230.628784 1000.179565,1210.064697 
	C999.820801,1205.377319 999.583313,1202.257202 999.345825,1199.137207 
	C998.865540,1199.081421 998.385254,1199.025757 997.904968,1198.970093 
	C997.344360,1203.306519 996.783691,1207.642944 996.223022,1211.979370 
	C991.461853,1236.742188 986.886108,1261.542480 981.893921,1286.258667 
	C975.192383,1319.437866 968.178772,1352.554199 961.264343,1385.690186 
	C960.730957,1388.246704 959.923889,1390.746094 959.130127,1393.695312 
	C938.188110,1393.695312 917.364563,1393.695312 895.954468,1393.695312 
	C891.106934,1372.172363 886.299255,1350.826294 881.054810,1328.074951 
	C878.524841,1317.873291 876.431763,1309.076660 874.338745,1300.280151 
	C869.889465,1279.541504 865.557129,1258.776733 860.964905,1238.069824 
	C852.997498,1202.143799 844.862854,1166.254639 836.830750,1130.342773 
	C836.479553,1128.772827 836.451477,1127.130493 836.127319,1124.210083 
	C848.461121,1124.210083 860.298462,1124.210083 873.059204,1124.043213 
	C875.450195,1123.980347 876.917786,1124.084229 880.004822,1124.208496 
	C886.839722,1124.228638 892.055115,1124.228638 897.380066,1124.228638 
	C902.388245,1153.016479 907.248352,1180.474854 911.927002,1207.964355 
	C918.166626,1244.625732 924.265259,1281.311157 930.316284,1318.665405 
	C930.701904,1321.470947 931.195801,1323.597412 931.689636,1325.723755 
	C933.158325,1324.187012 933.486145,1322.972778 933.595825,1321.739014 
	C933.706116,1320.498169 933.599121,1319.238037 933.848145,1317.193359 
	C944.926270,1252.247925 957.988464,1188.535034 970.674744,1123.877808 
	C989.543274,1123.877808 1007.475037,1123.877808 1025.406860,1123.877808 
z"/>
<path fill="#017BA6" opacity="1.000000" stroke="none" 
	d="
M148.297119,1599.766846 
	C136.991669,1550.318237 125.840050,1501.692505 114.517998,1452.323486 
	C177.162262,1452.323486 239.259033,1452.323486 302.267303,1452.323486 
	C315.384918,1536.364502 328.506592,1620.431641 341.725708,1705.122925 
	C287.938477,1715.811768 234.571701,1726.417114 180.103165,1737.241455 
	C169.576004,1691.792603 159.013474,1646.191040 148.297119,1599.766846 
z"/>
<path fill="#047CA8" opacity="1.000000" stroke="none" 
	d="
M455.706116,1318.467285 
	C434.582764,1278.927734 414.727142,1239.592651 397.191406,1199.291992 
	C397.191406,1263.730713 397.191406,1328.169556 397.191406,1393.903442 
	C389.268188,1393.994019 380.767181,1394.129761 372.265686,1394.177612 
	C363.629181,1394.226318 354.992157,1394.188477 345.615906,1394.188477 
	C345.615906,1304.199951 345.615906,1214.812500 345.615906,1124.842773 
	C348.408600,1124.650757 350.969604,1124.328735 353.531403,1124.322144 
	C370.856110,1124.276978 388.181519,1124.371338 405.505463,1124.246460 
	C409.746490,1124.215820 412.966187,1124.685303 415.264160,1129.139038 
	C443.032349,1182.957764 474.318634,1234.988647 497.423706,1291.174561 
	C499.820374,1297.002563 502.277618,1302.805664 504.748901,1308.602417 
	C504.822449,1308.775146 505.370422,1308.745728 506.871643,1309.043701 
	C501.657074,1247.842529 503.011322,1186.813477 502.900055,1125.045654 
	C520.675476,1125.045654 537.737854,1125.045654 555.415649,1125.045654 
	C555.415649,1214.357910 555.415649,1303.490601 555.415649,1393.854370 
	C545.744995,1394.562500 535.870178,1394.083862 526.032166,1394.169312 
	C516.058533,1394.255981 506.083527,1394.188477 495.353119,1394.188477 
	C482.221497,1369.133789 469.120911,1344.138428 455.706116,1318.467285 
z"/>
<path fill="#037BA7" opacity="1.000000" stroke="none" 
	d="
M592.956177,1327.020508 
	C575.655701,1283.567261 574.898743,1240.442383 592.137329,1197.830200 
	C616.265808,1138.187378 671.577759,1114.526733 727.250793,1121.056885 
	C788.412231,1128.230469 825.908203,1173.621826 834.040527,1230.922974 
	C838.473206,1262.156128 836.128906,1292.863159 824.032898,1322.158325 
	C804.598938,1369.225708 768.382385,1393.635498 718.200073,1398.092407 
	C700.481812,1399.666138 682.890686,1398.526245 665.823181,1393.157715 
	C631.699890,1382.424194 607.890930,1360.138916 592.956177,1327.020508 
M645.390137,1238.539795 
	C642.689941,1256.857422 643.284485,1275.035400 647.502563,1293.097534 
	C650.970764,1307.948364 656.867188,1321.577759 667.549255,1332.707153 
	C690.287231,1356.396973 727.513306,1356.210327 749.108765,1331.532471 
	C755.528076,1324.197021 760.396118,1315.009644 764.121521,1305.911987 
	C772.366577,1285.777344 773.477722,1264.418701 771.317566,1243.002075 
	C769.667847,1226.645752 765.266174,1210.980103 756.309570,1196.878540 
	C732.175842,1158.881836 682.658813,1159.119995 659.126770,1197.409302 
	C651.690491,1209.509155 647.488892,1222.758423 645.390137,1238.539795 
z"/>
<path fill="#037CA7" opacity="1.000000" stroke="none" 
	d="
M1942.322021,1132.969238 
	C1942.095825,1128.415649 1944.607544,1127.737427 1947.410889,1127.366943 
	C1954.669312,1126.407471 1961.900391,1125.045776 1969.190186,1124.554443 
	C1995.105835,1122.807007 2021.055176,1120.522461 2046.992310,1123.925415 
	C2055.870117,1125.090210 2064.844238,1126.457397 2073.397705,1128.999146 
	C2111.750977,1140.396851 2127.159668,1169.317505 2124.777588,1205.675537 
	C2123.109863,1231.135742 2110.178223,1250.106201 2088.209717,1262.960449 
	C2086.004639,1264.250610 2083.797607,1265.537109 2080.776367,1267.301270 
	C2101.256348,1278.624268 2108.807129,1297.607910 2114.112793,1317.988037 
	C2120.636475,1343.046509 2127.088867,1368.123779 2133.702393,1393.697632 
	C2114.329102,1393.697632 2095.161621,1393.697632 2074.926758,1393.697632 
	C2072.152344,1384.886719 2069.051758,1376.158569 2066.680420,1367.236450 
	C2063.434326,1355.023560 2060.750977,1342.661133 2057.807373,1330.367432 
	C2056.955322,1326.808838 2056.161377,1323.229370 2055.127686,1319.722290 
	C2048.144043,1296.025757 2037.903931,1288.335938 2013.247070,1288.187866 
	C2009.286011,1288.164062 2005.324707,1288.184448 2000.169189,1288.184448 
	C2000.169189,1323.489990 2000.169189,1358.239136 2000.169189,1393.576416 
	C1980.499878,1393.576416 1962.029541,1393.576416 1942.311768,1393.576416 
	C1942.311768,1306.876343 1942.311768,1220.373657 1942.322021,1132.969238 
M2060.141602,1228.893921 
	C2061.652100,1226.316040 2063.446289,1223.861450 2064.628174,1221.140747 
	C2073.670898,1200.324707 2064.740479,1177.625366 2044.600220,1171.037720 
	C2030.049561,1166.278564 2015.260254,1167.149292 2000.526001,1170.185669 
	C2000.526001,1195.038818 2000.526001,1219.171143 2000.526001,1243.739746 
	C2010.817871,1243.739746 2020.473145,1244.335083 2030.022827,1243.584595 
	C2041.221191,1242.704468 2051.443115,1238.769653 2060.141602,1228.893921 
z"/>
<path fill="#047CA7" opacity="1.000000" stroke="none" 
	d="
M220.129059,1180.025879 
	C232.231583,1161.238403 243.968964,1143.075684 255.816101,1124.743164 
	C278.979248,1124.743164 301.842255,1124.743164 324.681213,1124.743164 
	C324.845703,1125.105835 325.043518,1125.397827 325.103424,1125.715942 
	C325.159332,1126.012817 325.157349,1126.381714 325.026459,1126.641113 
	C324.580170,1127.526001 324.146881,1128.436035 323.565552,1129.231812 
	C297.046417,1165.538696 270.511566,1201.834229 243.988876,1238.138550 
	C243.800354,1238.396729 243.754715,1238.759033 243.254272,1240.156128 
	C272.071686,1290.494629 301.264679,1341.489258 331.098053,1393.602539 
	C307.744080,1393.602539 285.979462,1393.602539 263.550659,1393.602539 
	C243.243469,1355.745117 222.839493,1317.707275 201.729263,1278.352783 
	C194.396210,1287.808960 187.674255,1295.927368 181.685593,1304.554565 
	C180.016449,1306.959229 180.103119,1310.866821 180.085693,1314.088623 
	C179.961472,1337.077881 180.018829,1360.068237 180.018463,1383.058228 
	C180.018417,1386.328735 180.018463,1389.599121 180.018463,1393.524414 
	C160.801254,1393.524414 142.328781,1393.524414 123.195885,1393.524414 
	C123.195885,1304.298340 123.195885,1215.149536 123.195885,1124.670776 
	C132.138031,1123.901978 141.340393,1124.413330 150.496643,1124.321655 
	C159.792953,1124.228638 169.090912,1124.301147 179.596649,1124.301147 
	C180.425720,1134.241455 179.910919,1143.781128 179.998001,1153.278076 
	C180.089645,1163.272827 180.018524,1173.269165 180.018524,1183.264771 
	C180.018524,1192.927246 180.018524,1202.589722 180.018524,1212.252197 
	C180.018524,1221.726562 180.018524,1231.200806 180.018524,1240.675171 
	C180.521988,1240.761353 181.025452,1240.847534 181.528931,1240.933594 
	C194.273926,1220.839355 207.018936,1200.744995 220.129059,1180.025879 
z"/>
<path fill="#017BA6" opacity="1.000000" stroke="none" 
	d="
M761.947998,1589.765381 
	C769.368530,1543.556763 776.696838,1498.215454 784.117920,1452.300293 
	C842.873352,1452.300293 901.357300,1452.300293 961.223267,1452.300293 
	C945.466003,1516.343384 929.838745,1579.858032 914.073181,1643.934692 
	C860.094849,1647.417358 806.431519,1650.879761 751.520325,1654.422607 
	C755.079224,1632.457275 758.467468,1611.545044 761.947998,1589.765381 
z"/>
<path fill="#037CA7" opacity="1.000000" stroke="none" 
	d="
M1844.547241,1204.000000 
	C1844.547363,1177.108276 1844.547363,1151.216431 1844.547363,1124.822754 
	C1864.152832,1124.822754 1882.620117,1124.822754 1901.730713,1124.822754 
	C1901.893555,1128.517578 1902.158691,1131.755493 1902.160400,1134.993774 
	C1902.186401,1182.971924 1902.137451,1230.949951 1902.196533,1278.928101 
	C1902.219727,1297.718262 1899.898071,1316.145874 1893.852539,1333.973022 
	C1880.775635,1372.534424 1850.284546,1395.662354 1809.593506,1398.126709 
	C1794.241577,1399.056274 1778.968262,1398.911255 1763.941406,1395.049438 
	C1734.565552,1387.499756 1715.129517,1368.939575 1704.296387,1340.982178 
	C1698.101318,1324.994385 1694.653809,1308.229614 1694.475708,1291.230225 
	C1693.906494,1236.929077 1694.118774,1182.619873 1694.063477,1128.313721 
	C1694.062500,1127.375854 1694.488403,1126.437500 1694.855713,1124.918701 
	C1713.349854,1124.918701 1731.857788,1124.918701 1751.569580,1124.918701 
	C1751.714111,1128.280762 1751.993408,1131.779175 1751.995605,1135.277954 
	C1752.025391,1183.589233 1752.022827,1231.900513 1752.014160,1280.211792 
	C1752.011597,1294.634644 1753.492432,1308.848999 1758.960449,1322.320312 
	C1767.855713,1344.235840 1786.818726,1353.723389 1809.864624,1348.181885 
	C1822.078613,1345.244995 1830.467896,1337.669556 1835.906128,1326.682861 
	C1841.461792,1315.459106 1843.971802,1303.386108 1844.111084,1290.951660 
	C1844.432251,1262.303101 1844.422607,1233.650757 1844.547241,1204.000000 
z"/>
<path fill="#047CA7" opacity="1.000000" stroke="none" 
	d="
M1416.141235,1156.287354 
	C1394.812256,1196.320435 1373.850830,1235.713989 1352.696045,1275.003296 
	C1350.058960,1279.900757 1349.048828,1284.793701 1349.070801,1290.264404 
	C1349.193604,1320.924072 1349.129517,1351.584351 1349.129150,1382.244507 
	C1349.129150,1385.845703 1349.129028,1389.446777 1349.129028,1393.613037 
	C1329.722046,1393.613037 1311.259644,1393.613037 1292.110962,1393.613037 
	C1291.952148,1390.133545 1291.680176,1386.903076 1291.676514,1383.672485 
	C1291.643677,1353.678833 1291.528564,1323.684326 1291.757568,1293.692383 
	C1291.807739,1287.132568 1290.260864,1281.433594 1287.299561,1275.625488 
	C1262.949707,1227.867432 1238.812378,1180.001099 1214.636353,1132.154541 
	C1213.619141,1130.141235 1212.854492,1128.000366 1211.585327,1125.006592 
	C1233.523315,1125.006592 1254.601807,1125.006592 1277.314697,1125.006592 
	C1292.168335,1162.374878 1307.355835,1200.583618 1322.839966,1239.538208 
	C1338.065308,1200.690552 1353.026978,1162.515015 1367.919800,1124.515869 
	C1389.600708,1124.515869 1410.240479,1124.515869 1432.462280,1124.515869 
	C1427.642822,1135.701538 1421.652710,1145.475342 1416.141235,1156.287354 
z"/>
<path fill="#E79F3E" opacity="1.000000" stroke="none" 
	d="
M874.202576,1301.179199 
	C876.431763,1309.076660 878.524841,1317.873291 880.687134,1327.171875 
	C880.489014,1332.312744 880.001099,1336.950806 879.990051,1341.590088 
	C879.919556,1371.185181 879.953979,1400.780762 879.953979,1430.376099 
	C879.953918,1433.908936 879.953979,1437.441650 879.953979,1442.282104 
	C876.950806,1440.909424 874.875122,1440.620117 874.419189,1439.604004 
	C873.653687,1437.898071 873.769226,1435.729248 873.772644,1433.755493 
	C873.849243,1389.863159 873.961243,1345.970703 874.202576,1301.179199 
z"/>
<path fill="#E8A852" opacity="1.000000" stroke="none" 
	d="
M1024.738770,1356.433105 
	C1027.177002,1367.500488 1029.467773,1379.321289 1031.692261,1391.801514 
	C1031.265625,1407.335571 1030.905273,1422.210327 1030.490845,1439.312622 
	C1027.581177,1437.162964 1025.655518,1436.361572 1024.802979,1434.923706 
	C1024.056030,1433.663696 1024.447144,1431.689209 1024.449585,1430.030518 
	C1024.485596,1405.749268 1024.540649,1381.468018 1024.738770,1356.433105 
z"/>
<path fill="#F8FBFC" opacity="1.000000" stroke="none" 
	d="
M996.689209,1211.767334 
	C996.783691,1207.642944 997.344360,1203.306519 997.904968,1198.970093 
	C998.385254,1199.025757 998.865540,1199.081421 999.345825,1199.137207 
	C999.583313,1202.257202 999.820801,1205.377319 999.936646,1209.263916 
	C998.928467,1210.538818 998.041992,1211.046997 996.689209,1211.767334 
z"/>
<path fill="#FDFEFD" opacity="1.000000" stroke="none" 
	d="
M1025.438965,1122.948730 
	C1007.475037,1123.877808 989.543274,1123.877808 970.674744,1123.877808 
	C957.988464,1188.535034 944.926270,1252.247925 933.320984,1317.189697 
	C931.830200,1317.981323 931.127319,1317.983765 930.424500,1317.986206 
	C924.265259,1281.311157 918.166626,1244.625732 911.927002,1207.964355 
	C907.248352,1180.474854 902.388245,1153.016479 897.380066,1124.228638 
	C892.055115,1124.228638 886.839722,1124.228638 880.729248,1124.056885 
	C879.813843,1095.293091 879.806763,1066.701172 879.766296,1038.109253 
	C879.751343,1027.564575 880.949402,1026.121948 891.793091,1025.931641 
	C902.759644,1025.738892 913.733521,1026.002930 924.704102,1025.993164 
	C952.298218,1025.968750 979.892273,1025.899780 1007.486389,1025.858521 
	C1010.145386,1025.854614 1012.823120,1025.729614 1015.459778,1025.989502 
	C1021.806396,1026.615234 1024.166138,1028.836548 1025.166138,1035.269409 
	C1025.571289,1037.875488 1025.485962,1040.570312 1025.487061,1043.224731 
	C1025.498047,1069.489624 1025.480469,1095.754639 1025.438965,1122.948730 
z"/>
<path fill="#FEFBF7" opacity="1.000000" stroke="none" 
	d="
M1031.713501,705.581238 
	C1024.948486,711.753479 1017.625305,714.342712 1009.238831,714.141296 
	C998.232300,713.876831 995.930115,710.434204 1000.372742,700.624817 
	C1001.333313,698.503906 1002.715027,696.549988 1003.486267,694.371643 
	C1005.560486,688.513550 1004.097656,686.007141 997.947327,684.165405 
	C995.204773,683.344238 992.495544,682.411804 989.747253,681.522156 
	C990.112976,674.718872 994.421509,672.046265 998.621338,669.383240 
	C1005.090820,665.281067 1011.654053,661.326965 1018.147583,657.262268 
	C1026.485352,652.043091 1030.249756,644.584290 1030.161133,634.654419 
	C1029.941040,609.994202 1030.037231,585.330139 1030.187866,560.668701 
	C1030.210327,557.029480 1028.839478,552.631042 1033.750000,549.640991 
	C1039.141846,555.534180 1041.116211,562.243958 1040.941040,569.708862 
	C1039.995605,610.009216 1038.972290,650.307861 1038.063965,690.609070 
	C1037.937012,696.239929 1036.106201,701.004883 1031.713501,705.581238 
z"/>
<path fill="#FEFCFA" opacity="1.000000" stroke="none" 
	d="
M903.897705,428.371826 
	C907.941833,423.966156 911.313782,419.795837 915.422546,416.561432 
	C931.890625,403.597809 952.624756,419.912109 955.236389,434.312622 
	C955.561279,436.104218 955.244080,438.465027 954.286621,439.962311 
	C948.516907,448.984192 940.830017,455.800049 929.669189,456.294800 
	C918.816223,456.775970 910.672668,451.244415 905.093384,442.137726 
	C902.646484,438.143921 900.817505,433.778778 903.897705,428.371826 
z"/>
<path fill="#FEFBF7" opacity="1.000000" stroke="none" 
	d="
M940.016174,542.973694 
	C950.417236,542.551208 960.040833,542.391113 969.664978,542.332642 
	C971.298401,542.322693 972.994202,542.548462 974.557739,543.013306 
	C978.663452,544.233826 980.280151,547.267334 980.082520,551.378845 
	C979.867615,555.851929 977.250793,557.946777 972.992676,558.031555 
	C963.697693,558.216797 954.400513,558.302490 945.103821,558.382751 
	C941.439453,558.414368 937.501770,558.712830 935.833374,554.361389 
	C934.115173,549.880005 934.537781,545.870605 940.016174,542.973694 
z"/>
<path fill="#F8FBFC" opacity="1.000000" stroke="none" 
	d="
M1601.127197,1301.159912 
	C1601.586060,1298.861938 1601.827148,1297.246216 1602.086548,1295.507935 
	C1613.558960,1304.761841 1615.577881,1323.623779 1606.650879,1336.490112 
	C1598.588257,1348.110352 1581.095093,1352.444092 1569.253418,1345.754517 
	C1563.515137,1342.512817 1561.994995,1338.538940 1566.491699,1333.644043 
	C1571.330933,1328.376343 1577.399170,1324.029419 1583.499512,1320.181885 
	C1590.966187,1315.472900 1598.063354,1310.778320 1601.127197,1301.159912 
z"/>
<path fill="#F8FBFC" opacity="1.000000" stroke="none" 
	d="
M930.316284,1318.665405 
	C931.127319,1317.983765 931.830200,1317.981323 933.060181,1317.982666 
	C933.599121,1319.238037 933.706116,1320.498169 933.595825,1321.739014 
	C933.486145,1322.972778 933.158325,1324.187012 931.689636,1325.723755 
	C931.195801,1323.597412 930.701904,1321.470947 930.316284,1318.665405 
z"/>
<path fill="#FDFEFE" opacity="1.000000" stroke="none" 
	d="
M645.520508,1237.667480 
	C647.488892,1222.758423 651.690491,1209.509155 659.126770,1197.409302 
	C682.658813,1159.119995 732.175842,1158.881836 756.309570,1196.878540 
	C765.266174,1210.980103 769.667847,1226.645752 771.317566,1243.002075 
	C773.477722,1264.418701 772.366577,1285.777344 764.121521,1305.911987 
	C760.396118,1315.009644 755.528076,1324.197021 749.108765,1331.532471 
	C727.513306,1356.210327 690.287231,1356.396973 667.549255,1332.707153 
	C656.867188,1321.577759 650.970764,1307.948364 647.502563,1293.097534 
	C643.284485,1275.035400 642.689941,1256.857422 645.520508,1237.667480 
z"/>
<path fill="#FBFDFE" opacity="1.000000" stroke="none" 
	d="
M2059.679443,1229.468262 
	C2051.443115,1238.769653 2041.221191,1242.704468 2030.022827,1243.584595 
	C2020.473145,1244.335083 2010.817871,1243.739746 2000.526001,1243.739746 
	C2000.526001,1219.171143 2000.526001,1195.038818 2000.526001,1170.185669 
	C2015.260254,1167.149292 2030.049561,1166.278564 2044.600220,1171.037720 
	C2064.740479,1177.625366 2073.670898,1200.324707 2064.628174,1221.140747 
	C2063.446289,1223.861450 2061.652100,1226.316040 2059.679443,1229.468262 
z"/>
</svg>