<?xml version="1.0" encoding="utf-8"?>
<!-- Generator: Adobe Illustrator 26.5.0, SVG Export Plug-In . SVG Version: 6.00 Build 0)  -->
<svg version="1.1" id="Layer_1" xmlns="http://www.w3.org/2000/svg" xmlns:xlink="http://www.w3.org/1999/xlink" x="0px" y="0px"
	 viewBox="0 0 792 612" style="enable-background:new 0 0 792 612;" xml:space="preserve">
<style type="text/css">
	.st0{fill:#DB9A44;}
	.st1{fill:none;}
	.st2{fill:#2979A3;}
	.st3{fill-rule:evenodd;clip-rule:evenodd;fill:#2979A3;}
</style>
<g>
	<path class="st0" d="M484.4,251.82c-0.03-1.28-0.86-2.5-2.73-2.82c-2.04-0.34-1.96-1.18-2.06-2.22c-0.3-3.1-0.36-6.23-1.2-9.26
		c-0.76-2.77-2.45-5.41-5.32-7.58c-1.6-1.21-3.14-1.17-4.59,0.13c-0.63,0.57-0.95,1.3-1.59,1.86c-0.33,0.29-1.19,0.62-1.57,0.51
		c-8.67-2.34-17.73-2.82-26.94-2.72c-3.62,0.04-7.24,0.05-10.85-0.02c-3.26-0.06-4.95-1.16-5.27-3.33
		c-0.58-3.91-1.11-7.83-1.65-11.74c-1.66-11.98-3.29-23.97-5.01-35.95c-0.39-2.71-0.9-5.43-1.72-8.09
		c-0.69-2.24-1.83-2.75-5.22-2.79c-15.24-0.18-30.49-0.34-45.74-0.47c-3.62-0.03-5.28,1.18-5.3,3.66c-0.02,2.21-0.01,4.41-0.01,6.62
		c0,1.29-0.76,2.27-2.35,3.04c-4.96,2.38-10.06,1.95-13.48-1.45c-1.94-1.92-3.32-4.11-4.9-6.19c-2.43-3.21-5.45-6.11-10.2-7.9
		c-10.03-3.77-22.43,0.5-26.86,6.75c-1.84,2.59-2.72,5.55-3.54,8.4c-1.25,4.37-2.06,8.8-3.05,13.21c-2.86,12.7-5.76,25.4-8.54,38.11
		c-0.72,3.3,0.57,6.41,3.38,9.13c4.59,4.43,11.34,4.88,18.46,4.1c2.79-0.31,5.18-0.24,7.77,0.62c3.56,1.19,7.44,1.41,10.53-0.62
		c4.03-2.65,5.8-5.99,4.92-9.81c-0.32-1.38-1.69-2.37-3.6-3.01c-6.07-2.03-12.56-0.33-15,3.92c-0.22,0.38-0.77,0.87-1.3,0.96
		c-6.16,1.1-11.85-1.95-11.37-6.18c0.44-3.87,0.93-7.75,1.84-11.58c3.16-13.4,6.53-26.77,9.77-40.16c0.68-2.79,3.36-4.41,6.95-5.3
		c1.35-0.33,3.54-0.27,4.6,0.27c2.07,1.06,3.79,2.51,5.33,3.96c2.56,2.4,4.63,5.06,7.33,7.38c4.89,4.21,14.3,7.12,22.56,4.06
		c0.37-0.14,1.58,0.14,1.61,0.31c0.22,0.95,1.14,1.04,2.18,0.93c2.12-0.23,2.5,0.49,2.48,1.72c-0.08,4.08,0.01,8.16-0.08,12.23
		c-0.03,1.16,0.49,2.06,1.79,2.76c1.49,0.8,3.05,1.56,4.49,2.4c0.46,0.27,0.76,0.76,0.87,1.19c0.05,0.19-0.47,0.57-0.85,0.68
		c-2.02,0.54-2.48,1.76-1.11,2.98c0.26,0.23,0.57,0.65,0.43,0.83c-0.16,0.21-0.79,0.37-1.21,0.37c-2.41,0.02-4.82-0.01-7.23-0.02
		c-3.7-0.02-5.47,1.16-5.5,3.69c-0.05,3.79-0.01,7.58-0.11,11.37c-0.02,0.78-0.43,1.58-0.86,2.32c-0.74,1.26-1.61,2.49-2.49,3.72
		c-0.23,0.32-0.63,0.65-1.08,0.82c-6.7,2.42-8.69,8.19-3.98,12.52c2.23,2.05,2.54,4.13,2.83,6.39c0.1,0.81,0.09,1.63,0.21,2.44
		c0.28,1.86,1.96,2.93,4.73,3.03c0.78,0.03,1.56,0.01,2.34,0.01c4.7,0.05,4.24-0.42,4.24,2.85c-0.05,28.89-0.13,57.78-0.2,86.66
		c0.4,0,0.8,0,1.2,0c0.01-28.89,0.01-57.77,0.02-86.66c0-3.18-0.58-2.82,4.19-2.81c6.01,0.01,12.02,0.04,18.03-0.02
		c1.76-0.02,2.35,0.36,2.35,1.56c-0.04,29.31-0.04,58.62-0.04,87.93c0.34,0,0.68,0,1.03,0c-0.01-27.44-0.02-54.87-0.02-82.31
		c0-1.92,0.04-3.84,0.02-5.76c-0.01-0.88,0.27-1.39,1.86-1.48c2.92-0.16,4.34-1.34,4.36-3.36c0.02-1.49-0.15-2.99,0.09-4.46
		c0.14-0.84,0.87-1.65,1.45-2.43c1.25-1.69,2.86-3.29,3.79-5.05c0.93-1.77,1.6-2.36,4.49-2.24c5.1,0.2,10.19,0.44,15.29,0.66
		c11.32,0.5,22.65,0.99,33.97,1.49c2.43,0.11,4.75,0.48,5.76,2.2c0.93,1.58-0.41,2.65-2.02,3.75c-1.6,1.09-1.87,2.53-1.16,4.03
		c0.67,1.41,2.3,1.68,4.18,1.71c3.47,0.07,6.96,0.35,10.39,0.16c4.58-0.25,9.12-0.83,13.05-2.7
		C484.8,254.68,484.43,253.22,484.4,251.82z M370,177.91c-2.45,0.01-4.5-1.57-4.6-3.54c-0.06-1.13,2.48-3.07,4.09-3.13
		c2.43-0.09,4.69,1.7,4.76,3.77C374.29,176.1,371.65,177.9,370,177.91z M376.85,192.92c-0.77-0.03-1.55-0.01-2.32-0.01
		c0,0.02,0,0.04,0,0.07c-0.7,0-1.41-0.03-2.11,0.01c-1.39,0.07-1.63-0.5-1.65-1.26c-0.02-0.75,0.35-1.17,1.58-1.14
		c1.48,0.04,2.96,0.03,4.44,0c1.33-0.03,1.68,0.45,1.7,1.25C378.51,192.63,378.02,192.97,376.85,192.92z M388.6,212.53
		c-0.08,2.19-2.62,3.53-5.9,3.31c-1.58-0.1-1.58-0.58-0.84-1.32c1.45-1.44,1.1-2.3-1.2-2.99c-1.01-0.31-0.89-1.13,0.21-1.71
		c1.55-0.83,3.29-1.55,4.53-2.56c0.91-0.73,1.58-1.83,1.62-2.78c0.16-3.97,0.04-7.95,0.03-11.92c0-0.27,0.12-0.54,0.18-0.8
		c0.29-0.05,0.58-0.11,0.87-0.16c0.35,0.85,1.02,1.71,1,2.55C389.02,200.28,388.83,206.4,388.6,212.53z"/>
	<path class="st0" d="M386.16,263.12c0-0.86-0.59-1.12-2.35-1.11c-6.01,0.04-12.02,0.02-18.03,0.01c-4.77,0-4.19-0.26-4.19,2
		c-0.01,20.54-0.01,41.09-0.02,61.63c8.29,0,16.44,0,24.55,0C386.12,304.81,386.12,283.97,386.16,263.12z"/>
	<path class="st0" d="M388.11,191.59c0.35,0.85,1.02,1.71,1,2.55c-0.09,6.13-0.28,12.26-0.51,18.39c-0.08,2.19-2.62,3.53-5.9,3.31
		c-1.58-0.1-1.58-0.58-0.84-1.32c1.45-1.44,1.1-2.3-1.2-2.99c-1.01-0.31-0.89-1.13,0.21-1.71c1.55-0.83,3.29-1.55,4.53-2.56
		c0.91-0.73,1.58-1.83,1.62-2.78c0.16-3.97,0.04-7.95,0.03-11.92c0-0.27,0.12-0.54,0.18-0.8
		C387.53,191.7,387.82,191.64,388.11,191.59z"/>
	<path class="st0" d="M365.4,174.36c-0.06-1.13,2.48-3.07,4.09-3.13c2.43-0.09,4.69,1.7,4.76,3.77c0.04,1.09-2.61,2.89-4.25,2.89
		C367.55,177.92,365.5,176.33,365.4,174.36z"/>
	<path class="st0" d="M374.52,192.98c-0.7,0-1.41-0.03-2.11,0.01c-1.39,0.07-1.63-0.5-1.65-1.26c-0.02-0.75,0.35-1.17,1.58-1.14
		c1.48,0.04,2.96,0.03,4.44,0c1.33-0.03,1.68,0.45,1.7,1.25c0.02,0.8-0.47,1.14-1.64,1.09c-0.77-0.03-1.55-0.01-2.32-0.01
		C374.52,192.94,374.52,192.96,374.52,192.98z"/>
</g>
<g>
	<path class="st2" d="M243.43,278.2h8.89v17.27h0.18c0.88-1.51,1.83-2.9,2.71-4.29l9.01-12.98h11.02l-13.14,16.63l13.84,22.42
		h-10.48l-9.72-16.86l-3.42,4.11v12.75h-8.89V278.2z"/>
	<path class="st2" d="M278.12,317.25V278.2h10.48l8.25,14.31c2.36,4.11,4.71,8.98,6.48,13.39h0.18c-0.59-5.16-0.77-10.43-0.77-16.28
		V278.2h8.25v39.05h-9.42l-8.48-15.07c-2.36-4.17-4.95-9.21-6.89-13.79l-0.18,0.06c0.24,5.16,0.35,10.66,0.35,17.04v11.76H278.12z"
		/>
	<path class="st2" d="M364.07,317.25l-9.42-39.05h9.6l3,16.11c0.88,4.64,1.71,9.68,2.36,13.62h0.12c0.65-4.23,1.59-8.92,2.59-13.73
		l3.36-15.99h9.54l3.18,16.46c0.88,4.58,1.53,8.75,2.12,13.1h0.12c0.59-4.35,1.47-8.92,2.3-13.56l3.24-15.99h9.13l-10.25,39.05
		h-9.72l-3.36-16.8c-0.77-3.94-1.41-7.59-1.88-12.05h-0.12c-0.71,4.4-1.35,8.11-2.3,12.05l-3.77,16.8H364.07z"/>
	<path class="st2" d="M425.75,317.25v-15.99L413.2,278.2h10.25l4.06,9.39c1.24,2.84,2.06,4.93,3.06,7.47h0.12
		c0.88-2.43,1.83-4.69,3-7.47l4.01-9.39h10.07l-13.08,22.77v16.28H425.75z"/>
	<path class="st2" d="M497.56,278.2v22.48c0,6.72,2.59,10.14,7.19,10.14c4.71,0,7.3-3.24,7.3-10.14V278.2H521v21.9
		c0,12.05-6.18,17.79-16.55,17.79c-10.01,0-15.9-5.45-15.9-17.9V278.2H497.56z"/>
	<path class="st2" d="M527.3,278.72c2.89-0.46,7.19-0.81,11.96-0.81c5.89,0,10.01,0.87,12.84,3.07c2.36,1.85,3.65,4.58,3.65,8.17
		c0,4.98-3.59,8.4-7.01,9.62v0.17c2.77,1.1,4.3,3.71,5.3,7.3c1.24,4.4,2.47,9.5,3.24,11.01h-9.19c-0.65-1.1-1.59-4.29-2.77-9.1
		c-1.06-4.87-2.77-6.2-6.42-6.26h-2.71v15.36h-8.89V278.72z M536.2,295.53h3.53c4.48,0,7.13-2.2,7.13-5.62
		c0-3.59-2.47-5.39-6.6-5.45c-2.18,0-3.42,0.17-4.06,0.29V295.53z"/>
</g>
<path class="st0" d="M282.84,399.81h-0.3c-1.57-9.14-3.27-20.9-4.98-31.39c-8.42,1.36-16.78,2.9-25.17,4.64L265.5,426h30.16
	l7.69-36.83c1.61-7.48,2.86-15.29,4.29-24.81c-6.41,0.7-12.73,1.49-18.99,2.38C286.41,378.09,284.33,389.29,282.84,399.81z"/>
<path class="st2" d="M277.26,360.58l-5.88-35.01h-29.25l10.26,41.45c8.39-1.74,16.75-3.28,25.17-4.64
	C277.46,361.78,277.36,361.18,277.26,360.58z"/>
<path class="st0" d="M340.6,366.34c-1.81,11.06-3.62,22.27-5.13,32.77h-0.3c-1.36-10.64-2.71-20.31-4.52-31.09l-1.04-5.95
	c-5.94,0.55-11.89,1.17-17.89,1.85c-0.94,0.1-1.87,0.2-2.81,0.3c1.21,9.58,2.44,17.42,3.79,24.81l6.79,36.97h29.71l17.63-66.46
	c-8.41,0.35-16.84,0.86-25.3,1.52L340.6,366.34z"/>
<path class="st2" d="M329.61,356.03l-5.3-30.46h-29.1l-6.48,34.73c-0.03,0.13-0.05,0.27-0.08,0.4c6.27-0.89,12.59-1.68,18.99-2.38
	c0.18-1.18,0.36-2.38,0.54-3.62h0.3c0.14,1.19,0.29,2.34,0.43,3.48c0.94-0.1,1.87-0.21,2.81-0.3
	C317.71,357.2,323.67,356.58,329.61,356.03z"/>
<path class="st2" d="M346.63,325.57l-5.11,29.44c8.47-0.66,16.89-1.17,25.3-1.52l7.4-27.92H346.63z"/>
<path class="st0" d="M378.68,359.04V426h68.16v-20.73h-40.86v-17.36h36.49v-20.45h-36.49v-8.1
	C396.86,359.04,387.77,358.93,378.68,359.04z"/>
<path class="st2" d="M444.73,346.16v-20.59h-66.05V353c9.09-0.1,18.17,0,27.29,0.33v-7.17H444.73z"/>
<path class="st2" d="M484.66,372.27v-46.69h-27.29v37.77c5.02,2.26,10.04,4.51,15.54,6.01
	C476.83,370.38,480.74,371.35,484.66,372.27z"/>
<path class="st0" d="M472.91,375.39c-5.5-1.5-10.52-3.76-15.54-6.01V426h66.35v-21.15h-39.06V378.3
	C480.74,377.39,476.83,376.42,472.91,375.39z"/>
<path class="st2" d="M558.43,325.57h-27.29v55.37c9.09,0.86,18.19,1.39,27.29,1.55V325.57z"/>
<path class="st0" d="M558.43,388.52c-9.11-0.16-18.21-0.68-27.29-1.55V426h66.35v-21.15h-39.06V388.52z"/>
<path class="st3" d="M473.02,283.33c-4.75-4.46-9.18-7.22-9.18-7.22c-1.63,1.39-3.14,2.74-4.53,4.06v0l-0.01,0
	c-0.78,0.75-1.53,1.48-2.24,2.2c-0.46,0.47-0.9,0.93-1.33,1.38c-2.2,2.34-4.03,4.56-5.52,6.68c-6,8.5-6.56,15.17-4.11,19.96
	c1.14,2.23,2.95,4.05,5.16,5.46c1.87,1.18,4.02,2.07,6.33,2.66c0.52,0.13,1.05,0.25,1.58,0.35c2.94,0.56,6.04,0.65,9.03,0.27
	c0.03,0,0.06-0.01,0.09-0.01c0.02,0,0.03-0.01,0.05-0.01c0.34-0.05,0.69-0.1,1.03-0.16c0.04-0.01,0.09-0.01,0.14-0.02l0.06-0.01
	c0.39-0.07,0.77-0.15,1.15-0.23l0.05-0.01c0.38-0.09,0.76-0.18,1.14-0.29l0.03-0.01c0.39-0.11,0.77-0.22,1.14-0.35l0.01,0
	c0.37-0.12,0.74-0.25,1.1-0.4l0.04-0.01c0.35-0.14,0.7-0.28,1.04-0.44l0.05-0.02c0.34-0.15,0.67-0.32,1-0.49l0.05-0.02
	c0.33-0.17,0.65-0.35,0.97-0.54l0.03-0.02c0.32-0.19,0.63-0.39,0.94-0.61l0.01-0.01c0.08-0.06,0.16-0.11,0.24-0.17
	c0.22-0.16,0.44-0.33,0.66-0.5l0.02-0.02c0.28-0.23,0.55-0.46,0.82-0.7l0.04-0.03c0.26-0.24,0.51-0.49,0.75-0.75l0.04-0.04
	c0.24-0.26,0.47-0.52,0.69-0.8l0.03-0.04c0.22-0.28,0.43-0.57,0.63-0.87l0.01-0.02c0.2-0.3,0.39-0.62,0.57-0.94l0.01-0.01
	c0.18-0.32,0.34-0.64,0.49-0.98l0.02-0.04c0.08-0.19,0.16-0.38,0.24-0.58c0.05-0.14,0.11-0.29,0.16-0.43l0.02-0.05
	c0.12-0.35,0.22-0.7,0.31-1.06l0.01-0.05c0.09-0.37,0.16-0.74,0.22-1.12l0.01-0.04c0.06-0.39,0.11-0.8,0.14-1.21
	C485,296.59,478.77,288.72,473.02,283.33z M474.75,309.14c-1.44,1.69-4.19,2.05-6.08,0.91c-0.33-0.2-0.51-0.58-0.41-0.94
	c0.39-1.31,2.01-2.11,3.35-2.78c1.52-0.76,3.13-2.47,2.22-3.89l0.36,0.23C476.05,304.22,476.32,307.3,474.75,309.14z"/>
<path class="st2" d="M354.65,297.32c0,12.81-8.25,20.57-20.37,20.57c-12.31,0-19.51-8.75-19.51-19.88c0-11.7,7.94-20.45,20.18-20.45
	C347.69,277.56,354.65,286.54,354.65,297.32z M324.68,297.84c0,7.65,3.82,13.04,10.09,13.04c6.34,0,9.97-5.68,9.97-13.27
	c0-7.01-3.57-13.04-10.03-13.04C328.37,284.57,324.68,290.25,324.68,297.84z"/>
</svg>
